{
  "accessors": [
    {
      "bufferView": 2,
      "componentType": 5126,
      "count": 7148,
      "max": [
        6.0821638107299805,
        13.275670051574707,
        10.321964263916016
      ],
      "min": [
        -6.0821638107299805,
        -14.101010322570801,
        0.44145578145980835
      ],
      "type": "VEC3"
    },
    {
      "bufferView": 2,
      "byteOffset": 85776,
      "componentType": 5126,
      "count": 7148,
      "max": [
        1,
        1,
        1
      ],
      "min": [
        -1,
        -1,
        -1
      ],
      "type": "VEC3"
    },
    {
      "bufferView": 3,
      "componentType": 5126,
      "count": 7148,
      "max": [
        1,
        1,
        1,
        1
      ],
      "min": [
        -1,
        -1,
        -1,
        -1
      ],
      "type": "VEC4"
    },
    {
      "bufferView": 1,
      "componentType": 5126,
      "count": 7148,
      "max": [
        0.9978020191192627,
        0.99849098920822144
      ],
      "min": [
        0.0019670000765472651,
        0.0022899999748915434
      ],
      "type": "VEC2"
    },
    {
      "bufferView": 0,
      "componentType": 5125,
      "count": 27816,
      "max": [
        7147
      ],
      "min": [
        0
      ],
      "type": "SCALAR"
    },
    {
      "bufferView": 2,
      "byteOffset": 171552,
      "componentType": 5126,
      "count": 43,
      "max": [
        0.31830999255180359,
        -1.3632169961929321,
        1.783005952835083
      ],
      "min": [
        -0.31830999255180359,
        -2.260343074798584,
        1.4117530584335327
      ],
      "type": "VEC3"
    },
    {
      "bufferView": 2,
      "byteOffset": 172068,
      "componentType": 5126,
      "count": 43,
      "max": [
        0.96759212017059326,
        -0.0075347344391047955,
        0.98140871524810791
      ],
      "min": [
        -0.96759212017059326,
        -0.47771584987640381,
        0.23331724107265472
      ],
      "type": "VEC3"
    },
    {
      "bufferView": 3,
      "byteOffset": 114368,
      "componentType": 5126,
      "count": 43,
      "max": [
        1,
        0.33275300264358521,
        0.92745298147201538,
        1
      ],
      "min": [
        0.25210690498352051,
        -0.33272039890289307,
        -0.92744386196136475,
        1
      ],
      "type": "VEC4"
    },
    {
      "bufferView": 1,
      "byteOffset": 57184,
      "componentType": 5126,
      "count": 43,
      "max": [
        0.96400099992752075,
        0.9951930046081543
      ],
      "min": [
        0.036212999373674393,
        0.0041780001483857632
      ],
      "type": "VEC2"
    },
    {
      "bufferView": 0,
      "byteOffset": 111264,
      "componentType": 5125,
      "count": 177,
      "max": [
        42
      ],
      "min": [
        0
      ],
      "type": "SCALAR"
    }
  ],
  "asset": {
    "generator": "Sketchfab (OSG glTF plugin)",
    "version": "2.0"
  },
  "bufferViews": [
    {
      "buffer": 0,
      "byteLength": 111972,
      "byteOffset": 0,
      "name": "floatBufferViews",
      "target": 34963
    },
    {
      "buffer": 0,
      "byteLength": 57528,
      "byteOffset": 111972,
      "byteStride": 8,
      "name": "floatBufferViews",
      "target": 34962
    },
    {
      "buffer": 0,
      "byteLength": 172584,
      "byteOffset": 169500,
      "byteStride": 12,
      "name": "floatBufferViews",
      "target": 34962
    },
    {
      "buffer": 0,
      "byteLength": 115056,
      "byteOffset": 342084,
      "byteStride": 16,
      "name": "floatBufferViews",
      "target": 34962
    }
  ],
  "buffers": [
    {
      "byteLength": 457140,
      "uri": "scene.bin"
    }
  ],
  "extensionsRequired": [
    "KHR_materials_pbrSpecularGlossiness"
  ],
  "extensionsUsed": [
    "KHR_materials_pbrSpecularGlossiness"
  ],
  "images": [
    {
      "uri": "textures/Bike_Glass_diffuse.png"
    },
    {
      "uri": "textures/Bike_Glass_normal.png"
    },
    {
      "uri": "textures/Bike_diffuse.png"
    },
    {
      "uri": "textures/Bike_normal.png"
    },
    {
      "uri": "textures/Bike_specularGlossiness.png"
    },
    {
      "uri": "textures/Bike_emissive.png"
    }
  ],
  "materials": [
    {
      "doubleSided": true,
      "emissiveFactor": [
        1,
        1,
        1
      ],
      "emissiveTexture": {
        "index": 5,
        "texCoord": 0
      },
      "extensions": {
        "KHR_materials_pbrSpecularGlossiness": {
          "diffuseFactor": [
            1,
            1,
            1,
            1
          ],
          "diffuseTexture": {
            "index": 2,
            "texCoord": 0
          },
          "glossinessFactor": 1,
          "specularFactor": [
            1,
            1,
            1
          ],
          "specularGlossinessTexture": {
            "index": 4,
            "texCoord": 0
          }
        }
      },
      "name": "Bike",
      "normalTexture": {
        "index": 3,
        "scale": 1,
        "texCoord": 0
      }
    },
    {
      "alphaMode": "BLEND",
      "doubleSided": true,
      "extensions": {
        "KHR_materials_pbrSpecularGlossiness": {
          "diffuseFactor": [
            1,
            1,
            1,
            1
          ],
          "diffuseTexture": {
            "index": 0,
            "texCoord": 0
          },
          "glossinessFactor": 0.90000000000000002,
          "specularFactor": [
            0.83999999999999997,
            0.83999999999999997,
            0.83999999999999997
          ]
        }
      },
      "name": "Bike_Glass",
      "normalTexture": {
        "index": 1,
        "scale": 1,
        "texCoord": 0
      }
    }
  ],
  "meshes": [
    {
      "primitives": [
        {
          "attributes": {
            "NORMAL": 1,
            "POSITION": 0,
            "TANGENT": 2,
            "TEXCOORD_0": 3
          },
          "indices": 4,
          "material": 0,
          "mode": 4
        }
      ]
    },
    {
      "primitives": [
        {
          "attributes": {
            "NORMAL": 6,
            "POSITION": 5,
            "TANGENT": 7,
            "TEXCOORD_0": 8
          },
          "indices": 9,
          "material": 1,
          "mode": 4
        }
      ]
    }
  ],
  "nodes": [
    {
      "children": [
        1
      ],
      "name": "RootNode (gltf orientation matrix)",
      "rotation": [
        -0.70710678118654746,
        -0,
        -0,
        0.70710678118654757
      ]
    },
    {
      "children": [
        2
      ],
      "name": "RootNode (model correction matrix)"
    },
    {
      "children": [
        3
      ],
      "matrix": [
        1,
        0,
        0,
        0,
        0,
        0,
        1,
        0,
        0,
        -1,
        0,
        0,
        0,
        0,
        0,
        1
      ],
      "name": "2d4667c7e2fd4dd7863cece33b2eb085.fbx"
    },
    {
      "children": [
        4,
        7
      ],
      "name": "RootNode"
    },
    {
      "children": [
        5
      ],
      "matrix": [
        12,
        0,
        0,
        0,
        0,
        2.6645352591003757e-15,
        -12,
        0,
        0,
        12,
        2.6645352591003757e-15,
        0,
        0,
        0,
        0,
        1
      ],
      "name": "Object013"
    },
    {
      "children": [
        6
      ],
      "name": "Geode"
    },
    {
      "mesh": 0,
      "name": ""
    },
    {
      "children": [
        8
      ],
      "matrix": [
        60,
        0,
        0,
        0,
        0,
        1.3322676295501878e-14,
        -60,
        0,
        0,
        60,
        1.3322676295501878e-14,
        0,
        0,
        0,
        0,
        1
      ],
      "name": "glass"
    },
    {
      "children": [
        9
      ],
      "name": "Geode"
    },
    {
      "mesh": 1,
      "name": ""
    }
  ],
  "samplers": [
    {
      "magFilter": 9729,
      "minFilter": 9987,
      "wrapS": 10497,
      "wrapT": 10497
    }
  ],
  "scene": 0,
  "scenes": [
    {
      "name": "OSG_Scene",
      "nodes": [
        0
      ]
    }
  ],
  "textures": [
    {
      "sampler": 0,
      "source": 0
    },
    {
      "sampler": 0,
      "source": 1
    },
    {
      "sampler": 0,
      "source": 2
    },
    {
      "sampler": 0,
      "source": 3
    },
    {
      "sampler": 0,
      "source": 4
    },
    {
      "sampler": 0,
      "source": 5
    }
  ]
}

