{"accessors":[{"bufferView":2,"componentType":5126,"count":42012,"max":[1446.97314453125,996.2786865234375,1240],"min":[430.59530639648438,441.51043701171875,100],"type":"VEC3"},{"bufferView":2,"byteOffset":504144,"componentType":5126,"count":42012,"max":[0.99999219179153442,0.99998182058334351,1],"min":[-0.99998927116394043,-0.9999803900718689,-1],"type":"VEC3"},{"bufferView":1,"componentType":5126,"count":42012,"max":[0.99490296840667725,0.99500000476837158],"min":[0.004999999888241291,0.004999999888241291],"type":"VEC2"},{"bufferView":3,"componentType":5126,"count":42012,"max":[0.99999964237213135,1,1,1],"min":[-1,-1,-0.9998963475227356,-1],"type":"VEC4"},{"bufferView":0,"componentType":5125,"count":162774,"max":[42011],"min":[0],"type":"SCALAR"},{"bufferView":2,"byteOffset":1008288,"componentType":5126,"count":1851,"max":[1452.9056396484375,1396.233154296875,1240],"min":[17.8260498046875,35.4998779296875,-1.2540283203125],"type":"VEC3"},{"bufferView":2,"byteOffset":1030500,"componentType":5126,"count":1851,"max":[0.99990010261535645,0.99992716312408447,1],"min":[-0.99992102384567261,-0.99994426965713501,-1],"type":"VEC3"},{"bufferView":1,"byteOffset":336096,"componentType":5126,"count":1851,"max":[0.99500000476837158,0.99457085132598877],"min":[0.004999999888241291,0.004999999888241291],"type":"VEC2"},{"bufferView":3,"byteOffset":672192,"componentType":5126,"count":1851,"max":[1,1,1,1],"min":[-1,-1,-0.0021991201210767031,1],"type":"VEC4"},{"bufferView":0,"byteOffset":651096,"componentType":5125,"count":2853,"max":[1850],"min":[0],"type":"SCALAR"},{"bufferView":2,"byteOffset":1052712,"componentType":5126,"count":920,"max":[1452.9056396484375,1396.233154296875,1300],"min":[17.8260498046875,35.4998779296875,-1.2540283203125],"type":"VEC3"},{"bufferView":2,"byteOffset":1063752,"componentType":5126,"count":920,"max":[0.99989569187164307,0.9999382495880127,1],"min":[-0.99989199638366699,-0.99994558095932007,-1],"type":"VEC3"},{"bufferView":1,"byteOffset":350904,"componentType":5126,"count":920,"max":[0.99433201551437378,0.99500000476837158],"min":[0.004999999888241291,0.004999999888241291],"type":"VEC2"},{"bufferView":3,"byteOffset":701808,"componentType":5126,"count":920,"max":[0.99989879131317139,1,1,1],"min":[-1,-1,-0.0012110322713851929,1],"type":"VEC4"},{"bufferView":0,"byteOffset":662508,"componentType":5125,"count":1398,"max":[919],"min":[0],"type":"SCALAR"},{"bufferView":2,"byteOffset":1074792,"componentType":5126,"count":1387,"max":[1441.4208984375,1396.233154296875,1300],"min":[433.14404296875,441.67300415039062,100],"type":"VEC3"},{"bufferView":2,"byteOffset":1091436,"componentType":5126,"count":1387,"max":[0.99989229440689087,0.9999205470085144,1],"min":[-0.99990522861480713,-0.99990564584732056,-1],"type":"VEC3"},{"bufferView":1,"byteOffset":358264,"componentType":5126,"count":1387,"max":[0.99499994516372681,0.99484705924987793],"min":[0.004999999888241291,0.004999999888241291],"type":"VEC2"},{"bufferView":3,"byteOffset":716528,"componentType":5126,"count":1387,"max":[1,1,1,1],"min":[-1,-1,-0.72083795070648193,1],"type":"VEC4"},{"bufferView":0,"byteOffset":668100,"componentType":5125,"count":2193,"max":[1386],"min":[0],"type":"SCALAR"},{"bufferView":2,"byteOffset":1108080,"componentType":5126,"count":116,"max":[1430.4620361328125,946.5400390625,1240],"min":[75.62384033203125,456.51416015625,103.702392578125],"type":"VEC3"},{"bufferView":2,"byteOffset":1109472,"componentType":5126,"count":116,"max":[0.99989044666290283,0.99990153312683105,1],"min":[-0.99989026784896851,-0.99990105628967285,-1],"type":"VEC3"},{"bufferView":3,"byteOffset":738720,"componentType":5126,"count":116,"max":[0.99989044666290283,1,1,1],"min":[-0.99989032745361328,-1,0,1],"type":"VEC4"},{"bufferView":0,"byteOffset":676872,"componentType":5125,"count":174,"max":[115],"min":[0],"type":"SCALAR"}],"asset":{"generator":"Sketchfab (OSG glTF plugin)","version":"2.0"},"bufferViews":[{"buffer":0,"byteLength":677568,"byteOffset":0,"name":"ScalarBufferView","target":34962},{"buffer":0,"byteLength":369360,"byteOffset":677568,"byteStride":8,"name":"Vec2BufferView","target":34962},{"buffer":0,"byteLength":1110864,"byteOffset":1046928,"byteStride":12,"name":"Vec3BufferView","target":34962},{"buffer":0,"byteLength":740576,"byteOffset":2157792,"byteStride":16,"name":"Vec4BufferView","target":34962}],"buffers":[{"byteLength":2898368,"uri":"scene.bin"}],"extensionsRequired":["KHR_materials_pbrSpecularGlossiness"],"extensionsUsed":["KHR_materials_pbrSpecularGlossiness"],"images":[{"uri":"textures\/Object002_mtl_diffuse.jpeg"},{"uri":"textures\/Object002_mtl_specularGlossiness.jpeg"},{"uri":"textures\/Object003_mtl_diffuse.jpeg"},{"uri":"textures\/Object004_mtl_diffuse.jpeg"},{"uri":"textures\/Object001_mtl_diffuse.jpeg"}],"materials":[{"doubleSided":true,"emissiveFactor":[0,0,0],"extensions":{"KHR_materials_pbrSpecularGlossiness":{"diffuseFactor":[1,1,1,1],"diffuseTexture":{"index":4,"texCoord":0},"glossinessFactor":0,"specularFactor":[0.0090000000000000011,0.0090000000000000011,0.0090000000000000011]}},"name":"Object001_mtl","occlusionFactor":1},{"doubleSided":true,"emissiveFactor":[0,0,0],"extensions":{"KHR_materials_pbrSpecularGlossiness":{"diffuseFactor":[1,1,1,1],"diffuseTexture":{"index":0,"texCoord":0},"glossinessFactor":0,"specularFactor":[0.01,0.01,0.01],"specularGlossinessTexture":{"index":1,"texCoord":0}}},"name":"Object002_mtl","occlusionFactor":1},{"doubleSided":true,"emissiveFactor":[0,0,0],"extensions":{"KHR_materials_pbrSpecularGlossiness":{"diffuseFactor":[1,1,1,1],"diffuseTexture":{"index":2,"texCoord":0},"glossinessFactor":0,"specularFactor":[0,0,0]}},"name":"Object003_mtl","occlusionFactor":1},{"doubleSided":true,"emissiveFactor":[0,0,0],"extensions":{"KHR_materials_pbrSpecularGlossiness":{"diffuseFactor":[1,1,1,1],"diffuseTexture":{"index":3,"texCoord":0},"glossinessFactor":0,"specularFactor":[0,0,0]}},"name":"Object004_mtl","occlusionFactor":1},{"alphaCutoff":0.5,"alphaMode":"BLEND","doubleSided":true,"emissiveFactor":[0,0,0],"extensions":{"KHR_materials_pbrSpecularGlossiness":{"diffuseFactor":[0.31452859967499996,0.27332416597999998,0.27332416597999998,0.01],"glossinessFactor":0,"specularFactor":[0.65026552390000003,0.71436555970000004,0.81036995099999998]}},"name":"BATI.MENUISERIE_VITRE","occlusionFactor":1}],"meshes":[{"name":"Object001","primitives":[{"attributes":{"NORMAL":1,"POSITION":0,"TANGENT":3,"TEXCOORD_0":2},"indices":4,"material":0,"mode":4}]},{"name":"Object002","primitives":[{"attributes":{"NORMAL":6,"POSITION":5,"TANGENT":8,"TEXCOORD_0":7},"indices":9,"material":1,"mode":4}]},{"name":"Object003","primitives":[{"attributes":{"NORMAL":11,"POSITION":10,"TANGENT":13,"TEXCOORD_0":12},"indices":14,"material":2,"mode":4}]},{"name":"Object004","primitives":[{"attributes":{"NORMAL":16,"POSITION":15,"TANGENT":18,"TEXCOORD_0":17},"indices":19,"material":3,"mode":4}]},{"name":"vitre","primitives":[{"attributes":{"NORMAL":21,"POSITION":20,"TANGENT":22},"indices":23,"material":4,"mode":4}]}],"nodes":[{"children":[1],"name":"RootNode (gltf orientation matrix)","rotation":[-0.70710678118654746,-0,-0,0.70710678118654757]},{"children":[2],"name":"RootNode (model correction matrix)"},{"children":[3],"matrix":[1,0,0,0,0,0,1,0,0,-1,0,0,0,0,0,1],"name":"Enter a title.fbx"},{"children":[4,7,10,13,16],"name":"RootNode"},{"children":[5],"matrix":[1,0,0,0,0,2.2204460492503131e-16,-1,0,0,1,2.2204460492503131e-16,0,735.3658447265625,-1.2540283203125,-715.86651611328125,1],"name":"Object001"},{"children":[6],"matrix":[1,0,-0,0,0,1,0,0,0,0,1,0,-735.3658447265625,-715.86651611328125,1.2540283203125,1],"name":""},{"mesh":0,"name":"Object001"},{"children":[8],"matrix":[1,0,0,0,0,2.2204460492503131e-16,-1,0,0,1,2.2204460492503131e-16,0,735.3658447265625,-1.2540283203125,-715.86651611328125,1],"name":"Object002"},{"children":[9],"matrix":[1,0,-0,0,0,1,0,0,0,0,1,0,-735.3658447265625,-715.86651611328125,1.2540283203125,1],"name":""},{"mesh":1,"name":"Object002"},{"children":[11],"matrix":[1,0,0,0,0,2.2204460492503131e-16,-1,0,0,1,2.2204460492503131e-16,0,735.3658447265625,-1.2540283203125,-715.86651611328125,1],"name":"Object003"},{"children":[12],"matrix":[1,0,-0,0,0,1,0,0,0,0,1,0,-735.3658447265625,-715.86651611328125,1.2540283203125,1],"name":""},{"mesh":2,"name":"Object003"},{"children":[14],"matrix":[1,0,0,0,0,2.2204460492503131e-16,-1,0,0,1,2.2204460492503131e-16,0,735.3658447265625,-1.2540283203125,-715.86651611328125,1],"name":"Object004"},{"children":[15],"matrix":[1,0,-0,0,0,1,0,0,0,0,1,0,-735.3658447265625,-715.86651611328125,1.2540283203125,1],"name":""},{"mesh":3,"name":"Object004"},{"children":[17],"matrix":[1,0,0,0,0,2.2204460492503131e-16,-1,0,0,1,2.2204460492503131e-16,0,735.3658447265625,-1.2540283203125,-715.86651611328125,1],"name":"vitre"},{"children":[18],"matrix":[1,0,-0,0,0,1,0,0,0,0,1,0,-735.3658447265625,-715.86651611328125,1.2540283203125,1],"name":""},{"mesh":4,"name":"vitre"}],"samplers":[{"magFilter":9729,"minFilter":9987,"wrapS":10497,"wrapT":10497}],"scene":0,"scenes":[{"name":"OSG_Scene","nodes":[0]}],"textures":[{"sampler":0,"source":0},{"sampler":0,"source":1},{"sampler":0,"source":2},{"sampler":0,"source":3},{"sampler":0,"source":4}]}
