{"accessors":[{"bufferView":2,"componentType":5126,"count":323,"max":[1753.6248779296875,1753.6248779296875,1753.6248779296875],"min":[-1753.6248779296875,-1753.6248779296875,-1753.6248779296875],"type":"VEC3"},{"bufferView":2,"byteOffset":3876,"componentType":5126,"count":323,"max":[1,1,1],"min":[-1,-1,-1],"type":"VEC3"},{"bufferView":1,"componentType":5126,"count":323,"max":[1,1],"min":[0,0],"type":"VEC2"},{"bufferView":3,"componentType":5126,"count":323,"max":[1,0.065542779862880707,1,1],"min":[-1,-0.065542757511138916,-1,1],"type":"VEC4"},{"bufferView":0,"componentType":5125,"count":1584,"max":[322],"min":[0],"type":"SCALAR"},{"bufferView":2,"byteOffset":7752,"componentType":5126,"count":17752,"max":[72.514808654785156,47.056228637695312,54.367820739746094],"min":[-105.98202514648438,-410.11941528320312,-80.876083374023438],"type":"VEC3"},{"bufferView":2,"byteOffset":220776,"componentType":5126,"count":17752,"max":[1,1,1],"min":[-1,-1,-1],"type":"VEC3"},{"bufferView":1,"byteOffset":2584,"componentType":5126,"count":17752,"max":[0.99400502443313599,0.99400514364242554],"min":[0.0059949662536382675,0.0059949159622192383],"type":"VEC2"},{"bufferView":3,"byteOffset":5168,"componentType":5126,"count":17752,"max":[1,0.99997997283935547,1,1],"min":[-1,-0.99997997283935547,-1,-1],"type":"VEC4"},{"bufferView":0,"byteOffset":6336,"componentType":5125,"count":46938,"max":[17751],"min":[0],"type":"SCALAR"},{"bufferView":2,"byteOffset":433800,"componentType":5126,"count":12159,"max":[592.7066650390625,255.393310546875,181.34475708007812],"min":[-577.3870849609375,-270.6151123046875,-1781.752197265625],"type":"VEC3"},{"bufferView":2,"byteOffset":579708,"componentType":5126,"count":12159,"max":[0.99981093406677246,0.99995559453964233,0.99913293123245239],"min":[-0.99955439567565918,-0.99992728233337402,-0.9999687671661377],"type":"VEC3"},{"bufferView":1,"byteOffset":144600,"componentType":5126,"count":12159,"max":[0.99260938167572021,0.99260348081588745],"min":[0.0073905964381992817,0.0073965787887573242],"type":"VEC2"},{"bufferView":3,"byteOffset":289200,"componentType":5126,"count":12159,"max":[1,0.99992901086807251,0.99999725818634033,1],"min":[-1,-0.99912333488464355,-0.99999988079071045,-1],"type":"VEC4"},{"bufferView":0,"byteOffset":194088,"componentType":5125,"count":49944,"max":[12158],"min":[0],"type":"SCALAR"},{"bufferView":2,"byteOffset":725616,"componentType":5126,"count":12000,"max":[938.14947509765625,572.139404296875,244.08943176269531],"min":[-409.73587036132812,-503.21847534179688,-551.004150390625],"type":"VEC3"},{"bufferView":2,"byteOffset":869616,"componentType":5126,"count":12000,"max":[0.99999105930328369,1,0.99953436851501465],"min":[-0.99921625852584839,-0.99946427345275879,-0.9973151683807373],"type":"VEC3"},{"bufferView":1,"byteOffset":241872,"componentType":5126,"count":12000,"max":[0.99525058269500732,0.99523025751113892],"min":[0.004749419167637825,0.0047698020935058594],"type":"VEC2"},{"bufferView":3,"byteOffset":483744,"componentType":5126,"count":12000,"max":[1,0.99991101026535034,0.99986010789871216,1],"min":[-0.99932169914245605,-0.99961698055267334,-0.9999879002571106,1],"type":"VEC4"},{"bufferView":0,"byteOffset":393864,"componentType":5125,"count":18000,"max":[11999],"min":[0],"type":"SCALAR"},{"bufferView":2,"byteOffset":1013616,"componentType":5126,"count":12000,"max":[495.89727783203125,262.98733520507812,196.62106323242188],"min":[-299.13668823242188,-557.2054443359375,-1191.7431640625],"type":"VEC3"},{"bufferView":2,"byteOffset":1157616,"componentType":5126,"count":12000,"max":[0.99988478422164917,1,0.9990120530128479],"min":[-0.99977630376815796,-0.99928313493728638,-0.99919229745864868],"type":"VEC3"},{"bufferView":1,"byteOffset":337872,"componentType":5126,"count":12000,"max":[0.99525058269500732,0.99523025751113892],"min":[0.004749419167637825,0.0047698020935058594],"type":"VEC2"},{"bufferView":3,"byteOffset":675744,"componentType":5126,"count":12000,"max":[1,0.99995136260986328,0.99985438585281372,1],"min":[-0.9997100830078125,-0.99983042478561401,-0.99793547391891479,1],"type":"VEC4"},{"bufferView":0,"byteOffset":465864,"componentType":5125,"count":18000,"max":[11999],"min":[0],"type":"SCALAR"},{"bufferView":2,"byteOffset":1301616,"componentType":5126,"count":40000,"max":[1579.8140869140625,313.582275390625,614.51824951171875],"min":[-174.12550354003906,-364.03448486328125,-538.89935302734375],"type":"VEC3"},{"bufferView":2,"byteOffset":1781616,"componentType":5126,"count":40000,"max":[0.99978649616241455,1,0.99997252225875854],"min":[-0.99977892637252808,-0.99998980760574341,-0.99999392032623291],"type":"VEC3"},{"bufferView":1,"byteOffset":433872,"componentType":5126,"count":40000,"max":[0.99665731191635132,0.99665766954421997],"min":[0.0033427020534873009,0.0033423900604248047],"type":"VEC2"},{"bufferView":3,"byteOffset":867744,"componentType":5126,"count":40000,"max":[1,0.999825119972229,0.9999014139175415,1],"min":[-0.99955344200134277,-0.99992012977600098,-0.99996203184127808,1],"type":"VEC4"},{"bufferView":0,"byteOffset":537864,"componentType":5125,"count":60000,"max":[39999],"min":[0],"type":"SCALAR"}],"asset":{"generator":"Sketchfab (OSG glTF plugin)","version":"2.0"},"bufferViews":[{"buffer":0,"byteLength":777864,"byteOffset":0,"name":"ScalarBufferView","target":34962},{"buffer":0,"byteLength":753872,"byteOffset":777864,"byteStride":8,"name":"Vec2BufferView","target":34962},{"buffer":0,"byteLength":2261616,"byteOffset":1531736,"byteStride":12,"name":"Vec3BufferView","target":34962},{"buffer":0,"byteLength":1507744,"byteOffset":3793352,"byteStride":16,"name":"Vec4BufferView","target":34962}],"buffers":[{"byteLength":5301096,"uri":"scene.bin"}],"extensionsRequired":["KHR_materials_pbrSpecularGlossiness"],"extensionsUsed":["KHR_materials_pbrSpecularGlossiness"],"images":[{"uri":"textures\/Mat_emissive.jpeg"},{"uri":"textures\/Cloud_2_diffuse.png"},{"uri":"textures\/Cloud_2_emissive.jpeg"},{"uri":"textures\/Poly_emissive.jpeg"},{"uri":"textures\/Cloud_1_diffuse.png"},{"uri":"textures\/Cloud_1_emissive.jpeg"},{"uri":"textures\/Boot_Finaal_specularGlossiness.jpeg"},{"uri":"textures\/Boot_Finaal_emissive.jpg"},{"uri":"textures\/Cloud_3_diffuse.png"},{"uri":"textures\/Cloud_3_emissive.jpeg"}],"materials":[{"doubleSided":true,"emissiveFactor":[1,1,1],"emissiveTexture":{"index":0,"texCoord":0},"extensions":{"KHR_materials_pbrSpecularGlossiness":{"diffuseFactor":[0,0,0,1],"glossinessFactor":0,"specularFactor":[0,0,0]}},"name":"Mat","occlusionFactor":1},{"doubleSided":true,"emissiveFactor":[1,1,1],"emissiveTexture":{"index":7,"texCoord":0},"extensions":{"KHR_materials_pbrSpecularGlossiness":{"diffuseFactor":[0,0,0,1],"glossinessFactor":0,"specularFactor":[0.39195884149999999,0.39195884149999999,0.39195884149999999],"specularGlossinessTexture":{"index":6,"texCoord":0}}},"name":"Boot_Finaal","occlusionFactor":1},{"doubleSided":true,"emissiveFactor":[1,1,1],"emissiveTexture":{"index":3,"texCoord":0},"extensions":{"KHR_materials_pbrSpecularGlossiness":{"diffuseFactor":[0,0,0,1],"glossinessFactor":0,"specularFactor":[0,0,0]}},"name":"Poly","occlusionFactor":1},{"doubleSided":true,"emissiveFactor":[1,1,1],"emissiveTexture":{"index":5,"texCoord":0},"extensions":{"KHR_materials_pbrSpecularGlossiness":{"diffuseFactor":[0,0,0,1],"diffuseTexture":{"index":4,"texCoord":0},"glossinessFactor":0,"specularFactor":[0,0,0]}},"name":"Cloud_1","occlusionFactor":1},{"doubleSided":true,"emissiveFactor":[1,1,1],"emissiveTexture":{"index":2,"texCoord":0},"extensions":{"KHR_materials_pbrSpecularGlossiness":{"diffuseFactor":[0,0,0,1],"diffuseTexture":{"index":1,"texCoord":0},"glossinessFactor":0,"specularFactor":[0,0,0]}},"name":"Cloud_2","occlusionFactor":1},{"alphaCutoff":0.4468368902,"alphaMode":"MASK","doubleSided":true,"emissiveFactor":[1,1,1],"emissiveTexture":{"index":9,"texCoord":0},"extensions":{"KHR_materials_pbrSpecularGlossiness":{"diffuseFactor":[0,0,0,1],"diffuseTexture":{"index":8,"texCoord":0},"glossinessFactor":0,"specularFactor":[0,0,0]}},"name":"Cloud_3","occlusionFactor":1}],"meshes":[{"name":"Sky","primitives":[{"attributes":{"NORMAL":1,"POSITION":0,"TANGENT":3,"TEXCOORD_0":2},"indices":4,"material":0,"mode":4}]},{"name":"Boot_Finaal_1","primitives":[{"attributes":{"NORMAL":6,"POSITION":5,"TANGENT":8,"TEXCOORD_0":7},"indices":9,"material":1,"mode":4}]},{"name":"Cloud_Poly","primitives":[{"attributes":{"NORMAL":11,"POSITION":10,"TANGENT":13,"TEXCOORD_0":12},"indices":14,"material":2,"mode":4}]},{"name":"Cloud_1","primitives":[{"attributes":{"NORMAL":16,"POSITION":15,"TANGENT":18,"TEXCOORD_0":17},"indices":19,"material":3,"mode":4}]},{"name":"Cloud_2","primitives":[{"attributes":{"NORMAL":21,"POSITION":20,"TANGENT":23,"TEXCOORD_0":22},"indices":24,"material":4,"mode":4}]},{"name":"Cloud_3","primitives":[{"attributes":{"NORMAL":26,"POSITION":25,"TANGENT":28,"TEXCOORD_0":27},"indices":29,"material":5,"mode":4}]}],"nodes":[{"children":[1],"name":"RootNode (gltf orientation matrix)","rotation":[-0.70710678118654746,-0,-0,0.70710678118654757]},{"children":[2],"name":"RootNode (model correction matrix)"},{"children":[3],"matrix":[1,0,0,0,0,0,1,0,0,-1,0,0,0,0,0,1],"name":"Clouds_5.fbx"},{"children":[4,6,8,10,12,14],"name":"RootNode"},{"children":[5],"matrix":[2.2204460492503131e-16,0,1,0,0,1,0,0,-1,0,2.2204460492503131e-16,0,51.636589050292969,0,-817.579345703125,1],"name":"Sky"},{"mesh":0,"name":"Sky"},{"children":[7],"matrix":[0.82511349827829517,0,0.56496700342493789,0,0,1,0,0,-0.56496700342493789,0,0.82511349827829517,0,7.5337133407592773,-7.8006753921508789,-688.47601318359375,1],"name":"Boot_Finaal_1"},{"mesh":1,"name":"Boot_Finaal_1"},{"children":[9],"name":"Cloud_Poly"},{"mesh":2,"name":"Cloud_Poly"},{"children":[11],"matrix":[0.83500716212099246,-0.039601454788872087,1.2454696961328491,0,-1.0756200172908104,-0.77984318768197403,0.69633769180573213,0,0.62913004824913876,-1.2807327306681213,-0.46251384302030774,0,-102.34154510498047,-152.02336120605469,-1209.9898681640625,1],"name":"Cloud_1"},{"mesh":3,"name":"Cloud_1"},{"children":[13],"matrix":[0.57576167496597641,1.3097842921551486,0.45051481847327701,0,1.3478261149981419,-0.64222469193177045,0.14461054180853994,0,0.31916023776371238,0.3493029531750052,-1.4234198922081398,0,333.05169677734375,-63.933231353759766,-1541.73291015625,1],"name":"Cloud_2"},{"mesh":4,"name":"Cloud_2"},{"children":[15],"matrix":[-0.30840971323051403,0.21596946362398664,1.1275772583176864,0,-0.018000907645032489,1.1665003028730998,-0.22834807778720878,0,-1.1479325982030557,-0.076315582203935695,-0.29936017738478049,0,339.37466430664062,-70.968238830566406,-1571.745361328125,1],"name":"Cloud_3"},{"mesh":5,"name":"Cloud_3"}],"samplers":[{"magFilter":9729,"minFilter":9987,"wrapS":10497,"wrapT":10497}],"scene":0,"scenes":[{"name":"OSG_Scene","nodes":[0]}],"textures":[{"sampler":0,"source":0},{"sampler":0,"source":1},{"sampler":0,"source":2},{"sampler":0,"source":3},{"sampler":0,"source":4},{"sampler":0,"source":5},{"sampler":0,"source":6},{"sampler":0,"source":7},{"sampler":0,"source":8},{"sampler":0,"source":9}]}
