{
  "accessors" : {
    "accessor_position_helmet_LP_25516" : {
      "bufferView" : "vec3BufferView",
      "byteOffset" : 0,
      "byteStride" : 12,
      "componentType" : 5126,
      "count" : 13600,
      "type" : "VEC3",
      "max" : [ 0.944977, 0.900995, 1 ],
      "min" : [ -0.944977, -0.900974, -1 ]
    },
    "accessor_normal_helmet_LP_25516" : {
      "bufferView" : "vec3BufferView",
      "byteOffset" : 163200,
      "byteStride" : 12,
      "componentType" : 5126,
      "count" : 13600,
      "type" : "VEC3",
      "max" : [ 1, 1, 1 ],
      "min" : [ -1, -1, -1 ]
    },
    "accessor_uv0_helmet_LP_25516" : {
      "bufferView" : "vec2BufferView",
      "byteOffset" : 0,
      "byteStride" : 8,
      "componentType" : 5126,
      "count" : 13600,
      "type" : "VEC2",
      "max" : [ 0.999976, 0.998666 ],
      "min" : [ 0.00244864, 5.5312E-4 ]
    },
    "accessor_tangents_helmet_LP_25516" : {
      "bufferView" : "vec4BufferView",
      "byteOffset" : 0,
      "byteStride" : 16,
      "componentType" : 5126,
      "count" : 13600,
      "type" : "VEC4",
      "max" : [ 1, 1, 1, 1 ],
      "min" : [ -1, -1, -1, -1 ]
    },
    "accessor_indices_0_helmet_LP_25516" : {
      "bufferView" : "ushortBufferView",
      "byteOffset" : 0,
      "byteStride" : 0,
      "componentType" : 5123,
      "count" : 46356,
      "type" : "SCALAR",
      "max" : [ 13599 ],
      "min" : [ 0 ]
    }
  },
  "asset" : {
    "generator" : "Unity 5.4.3f1",
    "version" : "1.1"
  },
  "buffers" : {
    "Helmet" : {
      "uri" : "Helmet.bin",
      "byteLength" : 745512,
      "type" : "arraybuffer"
    }
  },
  "bufferViews" : {
    "ushortBufferView" : {
      "buffer" : "Helmet",
      "byteOffset" : 0,
      "byteLength" : 92712,
      "target" : 34963
    },
    "vec2BufferView" : {
      "buffer" : "Helmet",
      "byteOffset" : 92712,
      "byteLength" : 108800,
      "target" : 34962
    },
    "vec3BufferView" : {
      "buffer" : "Helmet",
      "byteOffset" : 201512,
      "byteLength" : 326400,
      "target" : 34962
    },
    "vec4BufferView" : {
      "buffer" : "Helmet",
      "byteOffset" : 527912,
      "byteLength" : 217600,
      "target" : 34962
    }
  },
  "images" : {
    "image_Default_albedo_9098" : {
      "uri" : "Default_albedo.jpg"
    },
    "image_Default_MetalSmooth_21596_metallic" : {
      "uri" : "Default_MetalSmooth_metallic.jpg"
    },
    "image_Default_MetalSmooth_21596_roughness" : {
      "uri" : "Default_MetalSmooth_roughness.jpg"
    },
    "image_Default_MetalSmooth_21596_metallicRoughness" : {
      "uri" : "Default_MetalSmooth_metallicRoughness.jpg"
    },
    "image_Default_normal_22700" : {
      "uri" : "Default_normal.jpg"
    },
    "image_Default_AO_25064" : {
      "uri" : "Default_AO.jpg"
    },
    "image_Default_emissive_22780" : {
      "uri" : "Default_emissive.jpg"
    }
  },
  "materials" : {
    "material_Helmet_mat_9926" : {
      "name" : "Helmet_mat",
      "technique" : "technique_Standard",
      "values" : {
        "baseColor" : [ 1, 1, 1, 1 ],
        "baseColorTexture" : [ "texture_Default_albedo_9098" ],
        "metallic" : [ 0.75 ],
        "roughness" : [ 0.75 ],
        "metallicRoughnessTexture" : [ "texture_Default_MetalSmooth_21596_metallicRoughness" ],
        "normalTexture" : [ "texture_Default_normal_22700" ]
      }
    }
  },
  "meshes" : {
    "mesh_helmet_LP_25516Helmet" : {
      "name" : "mesh_helmet_LP_25516Helmet",
      "primitives" : [ {
        "attributes" : {
          "POSITION" : "accessor_position_helmet_LP_25516",
          "NORMAL" : "accessor_normal_helmet_LP_25516",
          "TEXCOORD_0" : "accessor_uv0_helmet_LP_25516",
          "TANGENT" : "accessor_tangents_helmet_LP_25516"
        },
        "indices" : "accessor_indices_0_helmet_LP_25516",
        "material" : "material_Helmet_mat_9926",
        "mode" : 4
      } ]
    }
  },
  "nodes" : {
    "node_Helmet" : {
      "name" : "Helmet",
      "meshes" : [ "mesh_helmet_LP_25516Helmet" ]
    }
  },
  "programs" : {
    "program_Standard" : {
      "attributes" : [ "a_position", "a_normal", "a_tangent", "a_texCoord0" ],
      "fragmentShader" : "frag",
      "vertexShader" : "vert"
    }
  },
  "samplers" : {
    "sampler_1_0_m" : {
      "magFilter" : 9729,
      "minFilter" : 9985,
      "wrapS" : 10497,
      "wrapT" : 10497
    }
  },
  "scene" : "defaultScene",
  "scenes" : {
    "defaultScene" : {
      "nodes" : [ "node_Helmet" ]
    }
  },
  "shaders" : {
    "vert" : {
      "uri" : "pbr-vert.glsl",
      "type" : 35633
    },
    "frag" : {
      "uri" : "pbr-frag.glsl",
      "type" : 35632
    }
  },
  "techniques" : {
    "technique_Standard" : {
      "parameters" : {
        "position" : {
          "type" : 35665,
          "semantic" : "POSITION"
        },
        "normal" : {
          "type" : 35665,
          "semantic" : "NORMAL"
        },
        "tangent" : {
          "type" : 35666,
          "semantic" : "TANGENT"
        },
        "texCoord0" : {
          "type" : 35664,
          "semantic" : "TEXCOORD_0"
        },
        "mvpMatrix" : {
          "type" : 35676,
          "semantic" : "MODELVIEWPROJECTION"
        },
        "normalMatrix" : {
          "type" : 35675,
          "semantic" : "MODELVIEWINVERSETRANSPOSE"
        },
        "baseColor" : {
          "type" : 35666
        },
        "baseColorTexture" : {
          "type" : 35678
        },
        "metallic" : {
          "type" : 5126
        },
        "metallicTexture" : {
          "type" : 35678
        },
        "roughness" : {
          "type" : 5126
        },
        "roughnessTexture" : {
          "type" : 35678
        },
        "normalTexture" : {
          "type" : 35678
        },
        "lightPosition" : {
          "type" : 35665,
          "value" : [ 10, 10, 10 ]
        }
      },
      "attributes" : {
        "a_position" : "position",
        "a_normal" : "normal",
        "a_tangent" : "tangent",
        "a_texCoord0" : "texCoord0"
      },
      "program" : "program_Standard",
      "uniforms" : {
        "u_mvpMatrix" : "mvpMatrix",
        "u_normalMatrix" : "normalMatrix",
        "u_baseColor" : "baseColor",
        "u_baseColorTexture" : "baseColorTexture",
        "u_metallic" : "metallic",
        "u_metallicTexture" : "metallicTexture",
        "u_roughness" : "roughness",
        "u_roughnessTexture" : "roughnessTexture",
        "u_normalTexture" : "normalTexture",
        "u_lightPosition" : "lightPosition"
      },
      "states" : {
        "enable" : [ 2884, 2929 ]
      }
    }
  },
  "textures" : {
    "texture_Default_albedo_9098" : {
      "format" : 6408,
      "internalFormat" : 6408,
      "sampler" : "sampler_1_0_m",
      "source" : "image_Default_albedo_9098",
      "target" : 3553,
      "type" : 5121,
      "XflipY":true
    },
    "texture_Default_MetalSmooth_21596_metallicRoughness" : {
      "format" : 6408,
      "internalFormat" : 6408,
      "sampler" : "sampler_1_0_m",
      "source" : "image_Default_MetalSmooth_21596_metallicRoughness",
      "target" : 3553,
      "type" : 5121,
      "XflipY":true
    },
    "texture_Default_normal_22700" : {
      "extras" : {
        "yUp" : false
      },
      "format" : 6408,
      "internalFormat" : 6408,
      "sampler" : "sampler_1_0_m",
      "source" : "image_Default_normal_22700",
      "target" : 3553,
      "type" : 5121,
      "XflipY":true
    },
    "texture_Default_AO_25064" : {
      "format" : 6408,
      "internalFormat" : 6408,
      "sampler" : "sampler_1_0_m",
      "source" : "image_Default_AO_25064",
      "target" : 3553,
      "type" : 5121,
      "XflipY":true
    },
    "texture_Default_emissive_22780" : {
      "format" : 6408,
      "internalFormat" : 6408,
      "sampler" : "sampler_1_0_m",
      "source" : "image_Default_emissive_22780",
      "target" : 3553,
      "type" : 5121,
      "XflipY":true
    }
  }
}