{"accessors":[{"bufferView":2,"componentType":5126,"count":4,"max":[1.6706000566482544,0.30559998750686646,-0.0037000000011175871],"min":[-1.8653000593185425,-4.3656001091003418,-0.0037000000011175871],"type":"VEC3"},{"bufferView":2,"byteOffset":48,"componentType":5126,"count":4,"max":[0,0,1],"min":[0,0,1],"type":"VEC3"},{"bufferView":1,"componentType":5126,"count":4,"max":[0.99930000305175781,0.75669997930526733],"min":[0.000699999975040555,0.000699999975040555],"type":"VEC2"},{"bufferView":3,"componentType":5126,"count":4,"max":[0,1,0,1],"min":[0,1,0,1],"type":"VEC4"},{"bufferView":0,"componentType":5125,"count":6,"max":[3],"min":[0],"type":"SCALAR"},{"bufferView":2,"byteOffset":96,"componentType":5126,"count":686,"max":[1.6132999658584595,-1.5903999805450439,2.3545999526977539],"min":[-1.8164999485015869,-3.2767000198364258,-0.024000000208616257],"type":"VEC3"},{"bufferView":2,"byteOffset":8328,"componentType":5126,"count":686,"max":[1,1,1],"min":[-1,-1,-1],"type":"VEC3"},{"bufferView":1,"byteOffset":32,"componentType":5126,"count":686,"max":[0.92549997568130493,0.99940001964569092],"min":[0.00060000002849847078,0.000699999975040555],"type":"VEC2"},{"bufferView":3,"byteOffset":64,"componentType":5126,"count":686,"max":[0.99987703561782837,1,0.99999934434890747,1],"min":[-1,-1,-0.99964004755020142,1],"type":"VEC4"},{"bufferView":0,"byteOffset":24,"componentType":5125,"count":1332,"max":[685],"min":[0],"type":"SCALAR"},{"bufferView":2,"byteOffset":16560,"componentType":5126,"count":4,"max":[1.2093000411987305,0.77439999580383301,3.5343000888824463],"min":[-1.5334000587463379,0.77439999580383301,0.79530000686645508],"type":"VEC3"},{"bufferView":2,"byteOffset":16608,"componentType":5126,"count":4,"max":[0,-1,-0],"min":[0,-1,-0],"type":"VEC3"},{"bufferView":1,"byteOffset":5520,"componentType":5126,"count":4,"max":[1,1],"min":[0,0],"type":"VEC2"},{"bufferView":3,"byteOffset":11040,"componentType":5126,"count":4,"max":[1,0,0,1],"min":[1,0,0,1],"type":"VEC4"},{"bufferView":0,"byteOffset":5352,"componentType":5125,"count":6,"max":[3],"min":[0],"type":"SCALAR"},{"bufferView":2,"byteOffset":16656,"componentType":5126,"count":16,"max":[-0.17350000143051147,-0.013000000268220901,2.7420001029968262],"min":[-0.40299999713897705,-0.28650000691413879,1.2627999782562256],"type":"VEC3"},{"bufferView":2,"byteOffset":16848,"componentType":5126,"count":16,"max":[0.76602005958557129,-0.64281684160232544,-0],"min":[0.76602005958557129,-0.64281684160232544,-0],"type":"VEC3"},{"bufferView":1,"byteOffset":5552,"componentType":5126,"count":16,"max":[0.99739998579025269,0.9562000036239624],"min":[0.030999999493360519,0.00050000002374872565],"type":"VEC2"},{"bufferView":3,"byteOffset":11104,"componentType":5126,"count":16,"max":[0,0,1,1],"min":[-0.64281678199768066,-0.76601999998092651,0,1],"type":"VEC4"},{"bufferView":0,"byteOffset":5376,"componentType":5125,"count":24,"max":[15],"min":[0],"type":"SCALAR"},{"bufferView":2,"byteOffset":17040,"componentType":5126,"count":16,"max":[-0.69529998302459717,0.0031000000890344381,2.7420001029968262],"min":[-1.0045000314712524,-0.17540000379085541,1.2627999782562256],"type":"VEC3"},{"bufferView":2,"byteOffset":17232,"componentType":5126,"count":16,"max":[-0.50001102685928345,-0.86601907014846802,-0],"min":[-0.50001102685928345,-0.86601907014846802,-0],"type":"VEC3"},{"bufferView":1,"byteOffset":5680,"componentType":5126,"count":16,"max":[0.99739998579025269,0.9562000036239624],"min":[0.030999999493360519,0.00050000002374872565],"type":"VEC2"},{"bufferView":3,"byteOffset":11360,"componentType":5126,"count":16,"max":[0.86601912975311279,0,1,-1],"min":[0,-0.50001102685928345,0,-1],"type":"VEC4"},{"bufferView":0,"byteOffset":5472,"componentType":5125,"count":24,"max":[15],"min":[0],"type":"SCALAR"},{"bufferView":2,"byteOffset":17424,"componentType":5126,"count":194,"max":[1.554900050163269,0.10459999740123749,3.837399959564209],"min":[-1.7496999502182007,-5.9646000862121582,-0.0037000000011175871],"type":"VEC3"},{"bufferView":2,"byteOffset":19752,"componentType":5126,"count":194,"max":[1,1,1],"min":[-1,-1,-1],"type":"VEC3"},{"bufferView":1,"byteOffset":5808,"componentType":5126,"count":194,"max":[0.99930000305175781,0.71410000324249268],"min":[0.00050000002374872565,0.00060000002849847078],"type":"VEC2"},{"bufferView":3,"byteOffset":11616,"componentType":5126,"count":194,"max":[1,1,0.99999737739562988,1],"min":[-1,-1,-0.53253054618835449,1],"type":"VEC4"},{"bufferView":0,"byteOffset":5568,"componentType":5125,"count":480,"max":[193],"min":[0],"type":"SCALAR"},{"bufferView":2,"byteOffset":22080,"componentType":5126,"count":1736,"max":[1.5160000324249268,-0.3059999942779541,1.2582999467849731],"min":[0.25799998641014099,-2.4231998920440674,0.0059000002220273018],"type":"VEC3"},{"bufferView":2,"byteOffset":42912,"componentType":5126,"count":1736,"max":[1,1,1],"min":[-1,-1,-1],"type":"VEC3"},{"bufferView":1,"byteOffset":7360,"componentType":5126,"count":1736,"max":[0.99949997663497925,0.98500001430511475],"min":[0.00050000002374872565,0.00050000002374872565],"type":"VEC2"},{"bufferView":3,"byteOffset":14720,"componentType":5126,"count":1736,"max":[0.99999856948852539,0.99997633695602417,0.99999874830245972,1],"min":[-1,-1,-0.99999707937240601,1],"type":"VEC4"},{"bufferView":0,"byteOffset":7488,"componentType":5125,"count":4224,"max":[1735],"min":[0],"type":"SCALAR"},{"bufferView":2,"byteOffset":63744,"componentType":5126,"count":239,"max":[1.5285999774932861,-0.36010000109672546,1.1167000532150269],"min":[0.29449999332427979,-2.3824000358581543,0.21690000593662262],"type":"VEC3"},{"bufferView":2,"byteOffset":66612,"componentType":5126,"count":239,"max":[1,0.99504756927490234,1],"min":[-1,-0.95118188858032227,-0.98740267753601074],"type":"VEC3"},{"bufferView":1,"byteOffset":21248,"componentType":5126,"count":239,"max":[0.99940001964569092,0.71050000190734863],"min":[0.000699999975040555,0.00060000002849847078],"type":"VEC2"},{"bufferView":3,"byteOffset":42496,"componentType":5126,"count":239,"max":[0.99999356269836426,0.79267823696136475,0.8564828634262085,1],"min":[-0.99928826093673706,-1,-0.99912947416305542,1],"type":"VEC4"},{"bufferView":0,"byteOffset":24384,"componentType":5125,"count":1068,"max":[238],"min":[0],"type":"SCALAR"},{"bufferView":2,"byteOffset":69480,"componentType":5126,"count":1330,"max":[0.13320000469684601,-0.26730000972747803,1.0628999471664429],"min":[-1.6318999528884888,-2.4007999897003174,0.14270000159740448],"type":"VEC3"},{"bufferView":2,"byteOffset":85440,"componentType":5126,"count":1330,"max":[0.9994996190071106,0.999930739402771,0.99993562698364258],"min":[-0.99773746728897095,-0.99483007192611694,-0.98880189657211304],"type":"VEC3"},{"bufferView":1,"byteOffset":23160,"componentType":5126,"count":1330,"max":[0.99570000171661377,0.97259998321533203],"min":[0.00050000002374872565,0.00060000002849847078],"type":"VEC2"},{"bufferView":3,"byteOffset":46320,"componentType":5126,"count":1330,"max":[0.99998700618743896,0.99981856346130371,0.99938338994979858,1],"min":[-0.99986916780471802,-1,-0.99876999855041504,-1],"type":"VEC4"},{"bufferView":0,"byteOffset":28656,"componentType":5125,"count":4032,"max":[1329],"min":[0],"type":"SCALAR"},{"bufferView":2,"byteOffset":101400,"componentType":5126,"count":2190,"max":[0.13320000469684601,-0.26730000972747803,1.0628999471664429],"min":[-1.6318999528884888,-2.4007999897003174,0.0035000001080334187],"type":"VEC3"},{"bufferView":2,"byteOffset":127680,"componentType":5126,"count":2190,"max":[1,1,0.99030768871307373],"min":[-1,-1,-0.98880189657211304],"type":"VEC3"},{"bufferView":1,"byteOffset":33800,"componentType":5126,"count":2190,"max":[0.99930000305175781,0.9757000207901001],"min":[0.00060000002849847078,0.011500000022351742],"type":"VEC2"},{"bufferView":3,"byteOffset":67600,"componentType":5126,"count":2190,"max":[0.99999219179153442,1,0.99994760751724243,1],"min":[-1,-1,-0.99994760751724243,1],"type":"VEC4"},{"bufferView":0,"byteOffset":44784,"componentType":5125,"count":7632,"max":[2189],"min":[0],"type":"SCALAR"},{"bufferView":2,"byteOffset":153960,"componentType":5126,"count":1920,"max":[-0.65499997138977051,-0.23829999566078186,1.1854000091552734],"min":[-1.5800000429153442,-1.1769000291824341,-0.00030000001424923539],"type":"VEC3"},{"bufferView":2,"byteOffset":177000,"componentType":5126,"count":1920,"max":[0.99858081340789795,0.99905979633331299,1],"min":[-0.99858081340789795,-0.99905979633331299,-1],"type":"VEC3"},{"bufferView":1,"byteOffset":51320,"componentType":5126,"count":1920,"max":[0.99930000305175781,0.95850002765655518],"min":[0.00060000002849847078,0.000699999975040555],"type":"VEC2"},{"bufferView":3,"byteOffset":102640,"componentType":5126,"count":1920,"max":[0.99979287385940552,0.99999946355819702,0.99999707937240601,1],"min":[-0.99991351366043091,-0.99970149993896484,-1,-1],"type":"VEC4"},{"bufferView":0,"byteOffset":75312,"componentType":5125,"count":4770,"max":[1919],"min":[0],"type":"SCALAR"},{"bufferView":2,"byteOffset":200040,"componentType":5126,"count":2366,"max":[1.5756000280380249,0.013000000268220901,1.6241999864578247],"min":[-1.7818000316619873,-3.1805999279022217,0.33039999008178711],"type":"VEC3"},{"bufferView":2,"byteOffset":228432,"componentType":5126,"count":2366,"max":[1,1,1],"min":[-1,-1,-1],"type":"VEC3"},{"bufferView":1,"byteOffset":66680,"componentType":5126,"count":2366,"max":[0.99940001964569092,0.98110002279281616],"min":[0.00050000002374872565,0.00060000002849847078],"type":"VEC2"},{"bufferView":3,"byteOffset":133360,"componentType":5126,"count":2366,"max":[1,0.99968802928924561,0.99994266033172607,1],"min":[-1,-0.99968802928924561,-0.9996877908706665,-1],"type":"VEC4"},{"bufferView":0,"byteOffset":94392,"componentType":5125,"count":6924,"max":[2365],"min":[0],"type":"SCALAR"},{"bufferView":2,"byteOffset":256824,"componentType":5126,"count":1259,"max":[1.5693000555038452,0.018400000408291817,2.6064999103546143],"min":[-1.7690999507904053,-2.0367999076843262,0.70969998836517334],"type":"VEC3"},{"bufferView":2,"byteOffset":271932,"componentType":5126,"count":1259,"max":[0.99971693754196167,1,0.99659830331802368],"min":[-0.99971693754196167,-1,-0.99857336282730103],"type":"VEC3"},{"bufferView":1,"byteOffset":85608,"componentType":5126,"count":1259,"max":[0.99930000305175781,1.0059000253677368],"min":[-0.0074000000022351742,-0.0210999995470047],"type":"VEC2"},{"bufferView":3,"byteOffset":171216,"componentType":5126,"count":1259,"max":[0.99859446287155151,0.9999886155128479,0.99950587749481201,1],"min":[-0.99823588132858276,-0.99999827146530151,-0.99998784065246582,-1],"type":"VEC4"},{"bufferView":0,"byteOffset":122088,"componentType":5125,"count":2346,"max":[1258],"min":[0],"type":"SCALAR"},{"bufferView":2,"byteOffset":287040,"componentType":5126,"count":109,"max":[1.5699000358581543,0.014999999664723873,3.837399959564209],"min":[-1.7647000551223755,-5.9935002326965332,-0.01119999960064888],"type":"VEC3"},{"bufferView":2,"byteOffset":288348,"componentType":5126,"count":109,"max":[1,0.99220699071884155,0.99866276979446411],"min":[-1,-0.99619090557098389,-0.96553891897201538],"type":"VEC3"},{"bufferView":1,"byteOffset":95680,"componentType":5126,"count":109,"max":[0.30160000920295715,0.99930000305175781],"min":[0.000699999975040555,0.000699999975040555],"type":"VEC2"},{"bufferView":3,"byteOffset":191360,"componentType":5126,"count":109,"max":[1,0.17166557908058167,0.99769234657287598,1],"min":[-1,-0.96857041120529175,-0.99995362758636475,1],"type":"VEC4"},{"bufferView":0,"byteOffset":131472,"componentType":5125,"count":192,"max":[108],"min":[0],"type":"SCALAR"},{"bufferView":2,"byteOffset":289656,"componentType":5126,"count":168,"max":[-0.64060002565383911,0.040600001811981201,2.7780001163482666],"min":[-1.0500999689102173,-0.21870000660419464,1.2252999544143677],"type":"VEC3"},{"bufferView":2,"byteOffset":291672,"componentType":5126,"count":168,"max":[0.86601907014846802,0.50001102685928345,1],"min":[-0.86601907014846802,-0.86601907014846802,-1],"type":"VEC3"},{"bufferView":1,"byteOffset":96552,"componentType":5126,"count":168,"max":[0.85019999742507935,0.99949997663497925],"min":[0.00050000002374872565,0.0015999999595806003],"type":"VEC2"},{"bufferView":3,"byteOffset":193104,"componentType":5126,"count":168,"max":[0.49997013807296753,0.9637984037399292,0.9995349645614624,-1],"min":[-0.96281862258911133,-0.93139392137527466,-0.73191505670547485,-1],"type":"VEC4"},{"bufferView":0,"byteOffset":132240,"componentType":5125,"count":378,"max":[167],"min":[0],"type":"SCALAR"},{"bufferView":2,"byteOffset":293688,"componentType":5126,"count":168,"max":[-0.13179999589920044,0.030999999493360519,2.7780001163482666],"min":[-0.4512999951839447,-0.33910000324249268,1.2252999544143677],"type":"VEC3"},{"bufferView":2,"byteOffset":295704,"componentType":5126,"count":168,"max":[0.76602005958557129,0.76602005958557129,1],"min":[-0.64281684160232544,-0.76602005958557129,-1],"type":"VEC3"},{"bufferView":1,"byteOffset":97896,"componentType":5126,"count":168,"max":[0.85019999742507935,0.99949997663497925],"min":[0.00050000002374872565,0.0015999999595806003],"type":"VEC2"},{"bufferView":3,"byteOffset":195792,"componentType":5126,"count":168,"max":[0.9693678617477417,0.9600907564163208,0.99953353404998779,1],"min":[-0.7659568190574646,-0.9359365701675415,-0.7319074273109436,1],"type":"VEC4"},{"bufferView":0,"byteOffset":133752,"componentType":5125,"count":378,"max":[167],"min":[0],"type":"SCALAR"}],"asset":{"generator":"Sketchfab (OSG glTF plugin)","version":"2.0"},"bufferViews":[{"buffer":0,"byteLength":135264,"byteOffset":0,"name":"ScalarBufferView","target":34962},{"buffer":0,"byteLength":99240,"byteOffset":135264,"byteStride":8,"name":"Vec2BufferView","target":34962},{"buffer":0,"byteLength":297720,"byteOffset":234504,"byteStride":12,"name":"Vec3BufferView","target":34962},{"buffer":0,"byteLength":198480,"byteOffset":532224,"byteStride":16,"name":"Vec4BufferView","target":34962}],"buffers":[{"byteLength":730704,"uri":"scene.bin"}],"extensionsRequired":["KHR_materials_pbrSpecularGlossiness"],"extensionsUsed":["KHR_materials_pbrSpecularGlossiness"],"images":[{"uri":"textures\/13___Defaultd_diffuse.jpeg"},{"uri":"textures\/13___Defaultd_emissive.jpeg"},{"uri":"textures\/13___Default_diffuse.jpeg"},{"uri":"textures\/13___Default_emissive.jpeg"},{"uri":"textures\/13___Defaultdddddddddddddddd_diffuse.jpeg"},{"uri":"textures\/13___Defaultdddddddddddddddd_emissive.jpeg"},{"uri":"textures\/13___Defaultddddd_diffuse.jpeg"},{"uri":"textures\/13___Defaultddddd_emissive.jpeg"},{"uri":"textures\/13___Defaultdddddd_diffuse.jpeg"},{"uri":"textures\/13___Defaultdddddd_emissive.jpeg"},{"uri":"textures\/13___Defaultddddddddddd_diffuse.jpeg"},{"uri":"textures\/13___Defaultddddddddddd_emissive.jpeg"},{"uri":"textures\/13___Defaultdddddddd_diffuse.jpeg"},{"uri":"textures\/13___Defaultdddddddd_emissive.jpeg"},{"uri":"textures\/13___Defaultddddddddddddddd_diffuse.jpeg"},{"uri":"textures\/13___Defaultddddddddddddddd_emissive.jpeg"},{"uri":"textures\/13___Defaultdddddddddddddd_diffuse.jpeg"},{"uri":"textures\/13___Defaultdddddddddddddd_emissive.jpeg"},{"uri":"textures\/13___Defaultddddddddd_diffuse.jpeg"},{"uri":"textures\/13___Defaultddddddddd_emissive.jpeg"},{"uri":"textures\/13___Defaultddddddddddddddddddd_diffuse.png"},{"uri":"textures\/13___Defaultddddddddddddddddddd_emissive.png"},{"uri":"textures\/13___Defaultdddddddddddddddddddd_diffuse.png"},{"uri":"textures\/13___Defaultdddddddddddddddddddd_emissive.png"},{"uri":"textures\/13___Defaultddddddddddddd_diffuse.jpeg"},{"uri":"textures\/13___Defaultddddddddddddd_emissive.jpeg"},{"uri":"textures\/13___Defaultddd_diffuse.jpeg"},{"uri":"textures\/13___Defaultddd_emissive.jpeg"},{"uri":"textures\/13___Defaultdddddddddddd_diffuse.jpeg"},{"uri":"textures\/13___Defaultdddddddddddd_emissive.jpeg"}],"materials":[{"doubleSided":false,"emissiveFactor":[0,0,0],"emissiveTexture":{"index":3,"texCoord":0},"extensions":{"KHR_materials_pbrSpecularGlossiness":{"diffuseFactor":[1,1,1,1],"diffuseTexture":{"index":2,"texCoord":0},"glossinessFactor":0,"specularFactor":[0,0,0]}},"name":"13___Default","occlusionFactor":1},{"doubleSided":false,"emissiveFactor":[0,0,0],"emissiveTexture":{"index":1,"texCoord":0},"extensions":{"KHR_materials_pbrSpecularGlossiness":{"diffuseFactor":[1,1,1,1],"diffuseTexture":{"index":0,"texCoord":0},"glossinessFactor":0,"specularFactor":[0,0,0]}},"name":"13___Defaultd","occlusionFactor":1},{"doubleSided":true,"emissiveFactor":[0,0,0],"emissiveTexture":{"index":27,"texCoord":0},"extensions":{"KHR_materials_pbrSpecularGlossiness":{"diffuseFactor":[1,1,1,1],"diffuseTexture":{"index":26,"texCoord":0},"glossinessFactor":0,"specularFactor":[0,0,0]}},"name":"13___Defaultddd","occlusionFactor":1},{"doubleSided":true,"emissiveFactor":[0,0,0],"emissiveTexture":{"index":7,"texCoord":0},"extensions":{"KHR_materials_pbrSpecularGlossiness":{"diffuseFactor":[1,1,1,1],"diffuseTexture":{"index":6,"texCoord":0},"glossinessFactor":0,"specularFactor":[0,0,0]}},"name":"13___Defaultddddd","occlusionFactor":1},{"doubleSided":false,"emissiveFactor":[0,0,0],"emissiveTexture":{"index":9,"texCoord":0},"extensions":{"KHR_materials_pbrSpecularGlossiness":{"diffuseFactor":[1,1,1,1],"diffuseTexture":{"index":8,"texCoord":0},"glossinessFactor":0,"specularFactor":[0,0,0]}},"name":"13___Defaultdddddd","occlusionFactor":1},{"doubleSided":true,"emissiveFactor":[0,0,0],"emissiveTexture":{"index":13,"texCoord":0},"extensions":{"KHR_materials_pbrSpecularGlossiness":{"diffuseFactor":[1,1,1,1],"diffuseTexture":{"index":12,"texCoord":0},"glossinessFactor":0,"specularFactor":[0,0,0]}},"name":"13___Defaultdddddddd","occlusionFactor":1},{"doubleSided":true,"emissiveFactor":[0,0,0],"emissiveTexture":{"index":19,"texCoord":0},"extensions":{"KHR_materials_pbrSpecularGlossiness":{"diffuseFactor":[1,1,1,1],"diffuseTexture":{"index":18,"texCoord":0},"glossinessFactor":0,"specularFactor":[0,0,0]}},"name":"13___Defaultddddddddd","occlusionFactor":1},{"doubleSided":true,"emissiveFactor":[0,0,0],"emissiveTexture":{"index":11,"texCoord":0},"extensions":{"KHR_materials_pbrSpecularGlossiness":{"diffuseFactor":[1,1,1,1],"diffuseTexture":{"index":10,"texCoord":0},"glossinessFactor":0,"specularFactor":[0,0,0]}},"name":"13___Defaultddddddddddd","occlusionFactor":1},{"doubleSided":false,"emissiveFactor":[0,0,0],"emissiveTexture":{"index":29,"texCoord":0},"extensions":{"KHR_materials_pbrSpecularGlossiness":{"diffuseFactor":[1,1,1,1],"diffuseTexture":{"index":28,"texCoord":0},"glossinessFactor":0,"specularFactor":[0,0,0]}},"name":"13___Defaultdddddddddddd","occlusionFactor":1},{"doubleSided":false,"emissiveFactor":[0,0,0],"emissiveTexture":{"index":25,"texCoord":0},"extensions":{"KHR_materials_pbrSpecularGlossiness":{"diffuseFactor":[1,1,1,1],"diffuseTexture":{"index":24,"texCoord":0},"glossinessFactor":0,"specularFactor":[0,0,0]}},"name":"13___Defaultddddddddddddd","occlusionFactor":1},{"doubleSided":true,"emissiveFactor":[0,0,0],"emissiveTexture":{"index":17,"texCoord":0},"extensions":{"KHR_materials_pbrSpecularGlossiness":{"diffuseFactor":[1,1,1,1],"diffuseTexture":{"index":16,"texCoord":0},"glossinessFactor":0,"specularFactor":[0,0,0]}},"name":"13___Defaultdddddddddddddd","occlusionFactor":1},{"doubleSided":true,"emissiveFactor":[0,0,0],"emissiveTexture":{"index":15,"texCoord":0},"extensions":{"KHR_materials_pbrSpecularGlossiness":{"diffuseFactor":[1,1,1,1],"diffuseTexture":{"index":14,"texCoord":0},"glossinessFactor":0,"specularFactor":[0,0,0]}},"name":"13___Defaultddddddddddddddd","occlusionFactor":1},{"doubleSided":true,"emissiveFactor":[0,0,0],"emissiveTexture":{"index":5,"texCoord":0},"extensions":{"KHR_materials_pbrSpecularGlossiness":{"diffuseFactor":[1,1,1,1],"diffuseTexture":{"index":4,"texCoord":0},"glossinessFactor":0,"specularFactor":[0,0,0]}},"name":"13___Defaultdddddddddddddddd","occlusionFactor":1},{"doubleSided":true,"emissiveFactor":[0,0,0],"emissiveTexture":{"index":21,"texCoord":0},"extensions":{"KHR_materials_pbrSpecularGlossiness":{"diffuseFactor":[1,1,1,1],"diffuseTexture":{"index":20,"texCoord":0},"glossinessFactor":0,"specularFactor":[0,0,0]}},"name":"13___Defaultddddddddddddddddddd","occlusionFactor":1},{"doubleSided":true,"emissiveFactor":[0,0,0],"emissiveTexture":{"index":23,"texCoord":0},"extensions":{"KHR_materials_pbrSpecularGlossiness":{"diffuseFactor":[1,1,1,1],"diffuseTexture":{"index":22,"texCoord":0},"glossinessFactor":0,"specularFactor":[0,0,0]}},"name":"13___Defaultdddddddddddddddddddd","occlusionFactor":1}],"meshes":[{"name":"FLOOR","primitives":[{"attributes":{"NORMAL":1,"POSITION":0,"TANGENT":3,"TEXCOORD_0":2},"indices":4,"material":0,"mode":4},{"attributes":{"NORMAL":6,"POSITION":5,"TANGENT":8,"TEXCOORD_0":7},"indices":9,"material":4,"mode":4},{"attributes":{"NORMAL":11,"POSITION":10,"TANGENT":13,"TEXCOORD_0":12},"indices":14,"material":10,"mode":4},{"attributes":{"NORMAL":16,"POSITION":15,"TANGENT":18,"TEXCOORD_0":17},"indices":19,"material":13,"mode":4},{"attributes":{"NORMAL":21,"POSITION":20,"TANGENT":23,"TEXCOORD_0":22},"indices":24,"material":14,"mode":4},{"attributes":{"NORMAL":26,"POSITION":25,"TANGENT":28,"TEXCOORD_0":27},"indices":29,"material":1,"mode":4},{"attributes":{"NORMAL":31,"POSITION":30,"TANGENT":33,"TEXCOORD_0":32},"indices":34,"material":2,"mode":4},{"attributes":{"NORMAL":36,"POSITION":35,"TANGENT":38,"TEXCOORD_0":37},"indices":39,"material":3,"mode":4},{"attributes":{"NORMAL":41,"POSITION":40,"TANGENT":43,"TEXCOORD_0":42},"indices":44,"material":5,"mode":4},{"attributes":{"NORMAL":46,"POSITION":45,"TANGENT":48,"TEXCOORD_0":47},"indices":49,"material":5,"mode":4},{"attributes":{"NORMAL":51,"POSITION":50,"TANGENT":53,"TEXCOORD_0":52},"indices":54,"material":6,"mode":4},{"attributes":{"NORMAL":56,"POSITION":55,"TANGENT":58,"TEXCOORD_0":57},"indices":59,"material":7,"mode":4},{"attributes":{"NORMAL":61,"POSITION":60,"TANGENT":63,"TEXCOORD_0":62},"indices":64,"material":8,"mode":4},{"attributes":{"NORMAL":66,"POSITION":65,"TANGENT":68,"TEXCOORD_0":67},"indices":69,"material":9,"mode":4},{"attributes":{"NORMAL":71,"POSITION":70,"TANGENT":73,"TEXCOORD_0":72},"indices":74,"material":11,"mode":4},{"attributes":{"NORMAL":76,"POSITION":75,"TANGENT":78,"TEXCOORD_0":77},"indices":79,"material":12,"mode":4}]}],"nodes":[{"children":[1],"name":"RootNode (gltf orientation matrix)","rotation":[-0.70710678118654746,-0,-0,0.70710678118654757]},{"children":[2],"name":"RootNode (model correction matrix)"},{"children":[3],"name":"Enter a title.obj.cleaner"},{"mesh":0,"name":"FLOOR"}],"samplers":[{"magFilter":9729,"minFilter":9987,"wrapS":10497,"wrapT":10497}],"scene":0,"scenes":[{"name":"OSG_Scene","nodes":[0]}],"textures":[{"sampler":0,"source":0},{"sampler":0,"source":1},{"sampler":0,"source":2},{"sampler":0,"source":3},{"sampler":0,"source":4},{"sampler":0,"source":5},{"sampler":0,"source":6},{"sampler":0,"source":7},{"sampler":0,"source":8},{"sampler":0,"source":9},{"sampler":0,"source":10},{"sampler":0,"source":11},{"sampler":0,"source":12},{"sampler":0,"source":13},{"sampler":0,"source":14},{"sampler":0,"source":15},{"sampler":0,"source":16},{"sampler":0,"source":17},{"sampler":0,"source":18},{"sampler":0,"source":19},{"sampler":0,"source":20},{"sampler":0,"source":21},{"sampler":0,"source":22},{"sampler":0,"source":23},{"sampler":0,"source":24},{"sampler":0,"source":25},{"sampler":0,"source":26},{"sampler":0,"source":27},{"sampler":0,"source":28},{"sampler":0,"source":29}]}
