{"accessors":[{"bufferView":2,"componentType":5126,"count":4154,"max":[20.031450271606445,20.025630950927734,2.9510800838470459],"min":[-20.040370941162109,-20.035680770874023,0.13944000005722046],"type":"VEC3"},{"bufferView":2,"byteOffset":49848,"componentType":5126,"count":4154,"max":[0.96751368045806885,0.97949957847595215,0.99999338388442993],"min":[-0.99568605422973633,-0.97926902770996094,-0.39888861775398254],"type":"VEC3"},{"bufferView":1,"componentType":5126,"count":4154,"max":[1,1],"min":[0,0],"type":"VEC2"},{"bufferView":3,"componentType":5126,"count":4154,"max":[0.99999994039535522,0.95751321315765381,0.99599456787109375,1],"min":[0.089413687586784363,-0.85331648588180542,-0.96898549795150757,-1],"type":"VEC4"},{"bufferView":0,"componentType":5125,"count":24360,"max":[4153],"min":[0],"type":"SCALAR"}],"asset":{"generator":"Sketchfab (OSG glTF plugin)","version":"2.0"},"bufferViews":[{"buffer":0,"byteLength":97440,"byteOffset":0,"name":"ScalarBufferView","target":34962},{"buffer":0,"byteLength":33232,"byteOffset":97440,"byteStride":8,"name":"Vec2BufferView","target":34962},{"buffer":0,"byteLength":99696,"byteOffset":130672,"byteStride":12,"name":"Vec3BufferView","target":34962},{"buffer":0,"byteLength":66464,"byteOffset":230368,"byteStride":16,"name":"Vec4BufferView","target":34962}],"buffers":[{"byteLength":296832,"uri":"scene.bin"}],"images":[{"uri":"textures\/Material_baseColor.png"},{"uri":"textures\/Material_metallicRoughness.png"},{"uri":"textures\/Material_normal.png"}],"materials":[{"doubleSided":false,"name":"Material","normalTexture":{"index":2,"scale":0.61948060989999998,"texCoord":0},"occlusionTexture":{"index":1,"strength":1,"texCoord":0},"pbrMetallicRoughness":{"baseColorFactor":[1,1,1,1],"baseColorTexture":{"index":0,"texCoord":0},"metallicFactor":0,"roughnessFactor":0.20000000000000001}}],"meshes":[{"name":"GeodePlane","primitives":[{"attributes":{"NORMAL":1,"POSITION":0,"TANGENT":3,"TEXCOORD_0":2},"indices":4,"material":0,"mode":4}]}],"nodes":[{"children":[1],"name":"RootNode (gltf orientation matrix)","rotation":[-0.70710678118654746,-0,-0,0.70710678118654757]},{"children":[2],"name":"RootNode (model correction matrix)"},{"children":[3,5],"name":"Root"},{"children":[4],"name":"Plane"},{"mesh":0,"name":"GeodePlane"},{"children":[6],"matrix":[-0.39073000000000002,-0.92049999999999998,0,0,0.19138000000000002,-0.081240000000000021,0.97814999999999996,0,-0.90039000000000002,0.38219000000000003,0.20791000000000004,0,-29.146860000000004,-0.86990000000000012,6.4989600000000003,1],"name":"Sun"},{"name":"Sun"}],"samplers":[{"magFilter":9729,"minFilter":9987,"wrapS":10497,"wrapT":10497}],"scene":0,"scenes":[{"name":"OSG_Scene","nodes":[0]}],"textures":[{"sampler":0,"source":0},{"sampler":0,"source":1},{"sampler":0,"source":2}]}
