{"accessors":[{"bufferView":2,"componentType":5126,"count":24,"max":[-13.230488777160645,11.689592361450195,24.267509460449219],"min":[-14.284682273864746,-14.582766532897949,-1.9224139451980591],"type":"VEC3"},{"bufferView":2,"byteOffset":288,"componentType":5126,"count":24,"max":[1,1,1],"min":[-1,-1,-1],"type":"VEC3"},{"bufferView":1,"componentType":5126,"count":24,"max":[1.0031650066375732,0.99647897481918335],"min":[0.0023809999693185091,-0.00028300000121816993],"type":"VEC2"},{"bufferView":3,"componentType":5126,"count":24,"max":[0.99984389543533325,1,0.029167730361223221,1],"min":[-7.2374336923530791e-06,-0.99957460165023804,0,-1],"type":"VEC4"},{"bufferView":0,"componentType":5125,"count":36,"max":[23],"min":[0],"type":"SCALAR"},{"bufferView":2,"byteOffset":576,"componentType":5126,"count":64,"max":[10.426858901977539,11.560203552246094,14.693098068237305],"min":[-10.93451976776123,11.300185203552246,-1.9168330430984497],"type":"VEC3"},{"bufferView":2,"byteOffset":1344,"componentType":5126,"count":64,"max":[1,0.99999994039535522,1],"min":[-1,-0.99999994039535522,-1],"type":"VEC3"},{"bufferView":1,"byteOffset":192,"componentType":5126,"count":64,"max":[1,1],"min":[0,0],"type":"VEC2"},{"bufferView":3,"byteOffset":384,"componentType":5126,"count":64,"max":[4.4562839320860803e-05,1,3.4338625276575385e-09,1],"min":[-0.00014642049791291356,-1,-1,1],"type":"VEC4"},{"bufferView":0,"byteOffset":144,"componentType":5125,"count":144,"max":[63],"min":[0],"type":"SCALAR"},{"bufferView":2,"byteOffset":2112,"componentType":5126,"count":24,"max":[13.889431953430176,11.689592361450195,24.267509460449219],"min":[12.835238456726074,-14.582766532897949,-1.9224139451980591],"type":"VEC3"},{"bufferView":2,"byteOffset":2400,"componentType":5126,"count":24,"max":[1,1,1],"min":[-1,-1,-1],"type":"VEC3"},{"bufferView":1,"byteOffset":704,"componentType":5126,"count":24,"max":[0.99992799758911133,0.99992901086807251],"min":[7.1000002208165824e-05,7.1000002208165824e-05],"type":"VEC2"},{"bufferView":3,"byteOffset":1408,"componentType":5126,"count":24,"max":[1,1,1,1],"min":[-0.022281462326645851,0,0,1],"type":"VEC4"},{"bufferView":0,"byteOffset":720,"componentType":5125,"count":36,"max":[23],"min":[0],"type":"SCALAR"},{"bufferView":2,"byteOffset":2688,"componentType":5126,"count":88,"max":[2.1673779487609863,2.3565731048583984,1.4883960485458374],"min":[-1.1426620483398438,-1.4496229887008667,0.78533399105072021],"type":"VEC3"},{"bufferView":2,"byteOffset":3744,"componentType":5126,"count":88,"max":[1,1,1],"min":[-1,-1,-1],"type":"VEC3"},{"bufferView":1,"byteOffset":896,"componentType":5126,"count":88,"max":[0.99987202882766724,0.84915697574615479],"min":[0.00012799999967683107,0.00012799999967683107],"type":"VEC2"},{"bufferView":3,"byteOffset":1792,"componentType":5126,"count":88,"max":[1,1,0.82472497224807739,1],"min":[-0.9267200231552124,-0.84454590082168579,-0.59989476203918457,1],"type":"VEC4"},{"bufferView":0,"byteOffset":864,"componentType":5125,"count":204,"max":[87],"min":[0],"type":"SCALAR"},{"bufferView":2,"byteOffset":4800,"componentType":5126,"count":5974,"max":[-2.5556290149688721,3.2755489349365234,0.8931090235710144],"min":[-7.4523329734802246,-1.7290539741516113,-1.7842719554901123],"type":"VEC3"},{"bufferView":2,"byteOffset":76488,"componentType":5126,"count":5974,"max":[1,0.99985456466674805,1],"min":[-1,-0.99986153841018677,-1],"type":"VEC3"},{"bufferView":1,"byteOffset":1600,"componentType":5126,"count":5974,"max":[1,1],"min":[0,0],"type":"VEC2"},{"bufferView":3,"byteOffset":3200,"componentType":5126,"count":5974,"max":[1,1,0.9971809983253479,1],"min":[-1,-1,-0.9971809983253479,1],"type":"VEC4"},{"bufferView":0,"byteOffset":1680,"componentType":5125,"count":30720,"max":[5973],"min":[0],"type":"SCALAR"},{"bufferView":2,"byteOffset":148176,"componentType":5126,"count":5974,"max":[2.9429049491882324,8.058772087097168,0.8931090235710144],"min":[-2.0617051124572754,3.1621088981628418,-1.7842719554901123],"type":"VEC3"},{"bufferView":2,"byteOffset":219864,"componentType":5126,"count":5974,"max":[0.9998810887336731,0.99999856948852539,1],"min":[-0.99986058473587036,-0.99999856948852539,-1],"type":"VEC3"},{"bufferView":1,"byteOffset":49392,"componentType":5126,"count":5974,"max":[1,1],"min":[0,0],"type":"VEC2"},{"bufferView":3,"byteOffset":98784,"componentType":5126,"count":5974,"max":[0.99999862909317017,0.99999964237213135,0.99718087911605835,1],"min":[-0.99999862909317017,-0.99999988079071045,-0.99718171358108521,1],"type":"VEC4"},{"bufferView":0,"byteOffset":124560,"componentType":5125,"count":30720,"max":[5973],"min":[0],"type":"SCALAR"},{"bufferView":2,"byteOffset":291552,"componentType":5126,"count":5974,"max":[8.2982721328735352,3.2641129493713379,0.8931090235710144],"min":[3.399338960647583,-1.7411839962005615,-1.7842719554901123],"type":"VEC3"},{"bufferView":2,"byteOffset":363240,"componentType":5126,"count":5974,"max":[0.99999630451202393,0.99996191263198853,1],"min":[-0.9999963641166687,-0.99998533725738525,-1],"type":"VEC3"},{"bufferView":1,"byteOffset":97184,"componentType":5126,"count":5974,"max":[1,1],"min":[0,0],"type":"VEC2"},{"bufferView":3,"byteOffset":194368,"componentType":5126,"count":5974,"max":[0.99995821714401245,0.99999642372131348,0.99718153476715088,1],"min":[-0.99999129772186279,-0.99998378753662109,-0.99718111753463745,1],"type":"VEC4"},{"bufferView":0,"byteOffset":247440,"componentType":5125,"count":30720,"max":[5973],"min":[0],"type":"SCALAR"},{"bufferView":2,"byteOffset":434928,"componentType":5126,"count":5974,"max":[2.9487268924713135,-2.7819070816040039,0.8931090235710144],"min":[-2.0562279224395752,-7.6790080070495605,-1.7842719554901123],"type":"VEC3"},{"bufferView":2,"byteOffset":506616,"componentType":5126,"count":5974,"max":[0.99993813037872314,0.99998670816421509,1],"min":[-0.99991130828857422,-0.99998694658279419,-1],"type":"VEC3"},{"bufferView":1,"byteOffset":144976,"componentType":5126,"count":5974,"max":[1,1],"min":[0,0],"type":"VEC2"},{"bufferView":3,"byteOffset":289952,"componentType":5126,"count":5974,"max":[0.99999886751174927,0.99999958276748657,0.99718117713928223,1],"min":[-0.99998331069946289,-0.99999934434890747,-0.99718064069747925,1],"type":"VEC4"},{"bufferView":0,"byteOffset":370320,"componentType":5125,"count":30720,"max":[5973],"min":[0],"type":"SCALAR"},{"bufferView":2,"byteOffset":578304,"componentType":5126,"count":24,"max":[12.838873863220215,11.638952255249023,-1.7620819807052612],"min":[-13.360997200012207,-14.560918807983398,-3.192317008972168],"type":"VEC3"},{"bufferView":2,"byteOffset":578592,"componentType":5126,"count":24,"max":[1,1,1],"min":[-1,-1,-1],"type":"VEC3"},{"bufferView":1,"byteOffset":192768,"componentType":5126,"count":24,"max":[0.99991399049758911,0.74995702505111694],"min":[8.7000000348780304e-05,8.7000000348780304e-05],"type":"VEC2"},{"bufferView":3,"byteOffset":385536,"componentType":5126,"count":24,"max":[0,1,1,1],"min":[0,-1,-1,1],"type":"VEC4"},{"bufferView":0,"byteOffset":493200,"componentType":5125,"count":36,"max":[23],"min":[0],"type":"SCALAR"},{"bufferView":2,"byteOffset":578880,"componentType":5126,"count":64,"max":[12.910741806030273,11.674614906311035,24.310001373291016],"min":[-13.316104888916016,10.036293983459473,-1.9168349504470825],"type":"VEC3"},{"bufferView":2,"byteOffset":579648,"componentType":5126,"count":64,"max":[1,1,1],"min":[-1,-1,-1],"type":"VEC3"},{"bufferView":1,"byteOffset":192960,"componentType":5126,"count":64,"max":[0.99992597103118896,0.55162602663040161],"min":[7.4000003223773092e-05,7.4000003223773092e-05],"type":"VEC2"},{"bufferView":3,"byteOffset":385920,"componentType":5126,"count":64,"max":[0.72131305932998657,0.99532425403594971,0.99690496921539307,1],"min":[-0.67587029933929443,-0.99994105100631714,-0.99938046932220459,1],"type":"VEC4"},{"bufferView":0,"byteOffset":493344,"componentType":5125,"count":132,"max":[63],"min":[0],"type":"SCALAR"},{"bufferView":2,"byteOffset":580416,"componentType":5126,"count":390,"max":[4.9221639633178711,4.8216981887817383,0.82930701971054077],"min":[-3.882814884185791,-3.9832808971405029,-1.8065210580825806],"type":"VEC3"},{"bufferView":2,"byteOffset":585096,"componentType":5126,"count":390,"max":[0.9994615912437439,0.99946153163909912,1],"min":[-0.9994615912437439,-0.99946153163909912,-1],"type":"VEC3"},{"bufferView":1,"byteOffset":193472,"componentType":5126,"count":390,"max":[0.59213298559188843,0.95278000831604004],"min":[0.004792999941855669,0.0030839999672025442],"type":"VEC2"},{"bufferView":3,"byteOffset":386944,"componentType":5126,"count":390,"max":[0.9994615912437439,0.9994615912437439,0.043701611459255219,1],"min":[-0.9994615912437439,-0.9994615912437439,-0.99961310625076294,1],"type":"VEC4"},{"bufferView":0,"byteOffset":493872,"componentType":5125,"count":1140,"max":[389],"min":[0],"type":"SCALAR"},{"bufferView":2,"byteOffset":589776,"componentType":5126,"count":52,"max":[12.201274871826172,11.488157272338867,14.969425201416016],"min":[-12.289252281188965,0.49779099225997925,-1.7375860214233398],"type":"VEC3"},{"bufferView":2,"byteOffset":590400,"componentType":5126,"count":52,"max":[0.99999994039535522,1,1],"min":[-0.99999994039535522,-1,-1],"type":"VEC3"},{"bufferView":1,"byteOffset":196592,"componentType":5126,"count":52,"max":[0.99188798666000366,0.97908800840377808],"min":[0.015569999814033508,0.02111399918794632],"type":"VEC2"},{"bufferView":3,"byteOffset":393184,"componentType":5126,"count":52,"max":[1,1,0.0065423306077718735,1],"min":[-1,-1,-0.0070396955125033855,1],"type":"VEC4"},{"bufferView":0,"byteOffset":498432,"componentType":5125,"count":78,"max":[51],"min":[0],"type":"SCALAR"},{"bufferView":2,"byteOffset":591024,"componentType":5126,"count":3856,"max":[10.017569541931152,11.576807022094727,14.405316352844238],"min":[-10.631593704223633,11.334074974060059,-2.102492094039917],"type":"VEC3"},{"bufferView":2,"byteOffset":637296,"componentType":5126,"count":3856,"max":[1,1,1],"min":[-1,-1,-1],"type":"VEC3"},{"bufferView":0,"byteOffset":498744,"componentType":5125,"count":9168,"max":[3855],"min":[0],"type":"SCALAR"},{"bufferView":2,"byteOffset":683568,"componentType":5126,"count":256,"max":[12.266152381896973,2.1958980560302734,2.5303440093994141],"min":[-12.354129791259766,0.43749898672103882,-1.4559739828109741],"type":"VEC3"},{"bufferView":2,"byteOffset":686640,"componentType":5126,"count":256,"max":[1,1,1],"min":[-1,-1,-1],"type":"VEC3"},{"bufferView":0,"byteOffset":535416,"componentType":5125,"count":828,"max":[255],"min":[0],"type":"SCALAR"},{"bufferView":2,"byteOffset":689712,"componentType":5126,"count":402,"max":[1.1747540235519409,1.5872189998626709,2.4666850566864014],"min":[-0.38951200246810913,-0.45202499628067017,0.83792102336883545],"type":"VEC3"},{"bufferView":2,"byteOffset":694536,"componentType":5126,"count":402,"max":[0.99946153163909912,0.99946171045303345,1],"min":[-0.99946165084838867,-0.9994615912437439,-1],"type":"VEC3"},{"bufferView":1,"byteOffset":197008,"componentType":5126,"count":402,"max":[0.99160397052764893,0.96356701850891113],"min":[0.022985000163316727,0.038858998566865921],"type":"VEC2"},{"bufferView":3,"byteOffset":394016,"componentType":5126,"count":402,"max":[0.95699900388717651,0.99946171045303345,5.1207676733611152e-05,1],"min":[-0.99946177005767822,-0.99520736932754517,-5.0911683501908556e-05,1],"type":"VEC4"},{"bufferView":0,"byteOffset":538728,"componentType":5125,"count":1116,"max":[401],"min":[0],"type":"SCALAR"},{"bufferView":2,"byteOffset":699360,"componentType":5126,"count":1392,"max":[7.7019691467285156,7.4623889923095703,-0.95681697130203247],"min":[-6.8559141159057617,-7.0824770927429199,-1.6569019556045532],"type":"VEC3"},{"bufferView":2,"byteOffset":716064,"componentType":5126,"count":1392,"max":[0.99994808435440063,0.9999505877494812,1],"min":[-0.99994927644729614,-0.99995076656341553,-1],"type":"VEC3"},{"bufferView":1,"byteOffset":200224,"componentType":5126,"count":1392,"max":[0.98767697811126709,0.99532097578048706],"min":[0.0056420001201331615,0.0067759999074041843],"type":"VEC2"},{"bufferView":3,"byteOffset":400448,"componentType":5126,"count":1392,"max":[1,1,0.31166133284568787,1],"min":[-1,-1,-0.29106405377388,1],"type":"VEC4"},{"bufferView":0,"byteOffset":543192,"componentType":5125,"count":6336,"max":[1391],"min":[0],"type":"SCALAR"},{"bufferView":2,"byteOffset":732768,"componentType":5126,"count":48,"max":[12.971426963806152,10.085748672485352,-1.410038948059082],"min":[-13.225556373596191,-14.628933906555176,-1.8902950286865234],"type":"VEC3"},{"bufferView":2,"byteOffset":733344,"componentType":5126,"count":48,"max":[1,1,1],"min":[-1,-1,-1],"type":"VEC3"},{"bufferView":1,"byteOffset":211360,"componentType":5126,"count":48,"max":[0.99994897842407227,0.99059402942657471],"min":[5.0999999075429514e-05,0.81547200679779053],"type":"VEC2"},{"bufferView":3,"byteOffset":422720,"componentType":5126,"count":48,"max":[0,1,0,1],"min":[-1,-1,-1,1],"type":"VEC4"},{"bufferView":0,"byteOffset":568536,"componentType":5125,"count":72,"max":[47],"min":[0],"type":"SCALAR"}],"asset":{"generator":"Sketchfab (OSG glTF plugin)","version":"2.0"},"bufferViews":[{"buffer":0,"byteLength":568824,"byteOffset":0,"name":"ScalarBufferView","target":34962},{"buffer":0,"byteLength":211744,"byteOffset":568824,"byteStride":8,"name":"Vec2BufferView","target":34962},{"buffer":0,"byteLength":733920,"byteOffset":780568,"byteStride":12,"name":"Vec3BufferView","target":34962},{"buffer":0,"byteLength":423488,"byteOffset":1514488,"byteStride":16,"name":"Vec4BufferView","target":34962}],"buffers":[{"byteLength":1937976,"uri":"scene.bin"}],"extensionsRequired":["KHR_materials_pbrSpecularGlossiness"],"extensionsUsed":["KHR_materials_pbrSpecularGlossiness"],"images":[{"uri":"textures\/krzeslo_1_diffuse.png"},{"uri":"textures\/Material.002_diffuse.png"},{"uri":"textures\/krzeslo_prawe_diffuse.png"},{"uri":"textures\/mata_diffuse.png"},{"uri":"textures\/Material.001_diffuse.png"},{"uri":"textures\/podloga_diffuse.png"},{"uri":"textures\/stolik_diffuse.png"},{"uri":"textures\/krzeslo_srodek_diffuse.png"},{"uri":"textures\/Material_diffuse.png"},{"uri":"textures\/Material.004_diffuse.png"},{"uri":"textures\/sciana_okno_diffuse.png"},{"uri":"textures\/stolik.001_diffuse.png"},{"uri":"textures\/Material.003_diffuse.jpeg"},{"uri":"textures\/Material.003_normal.jpg"},{"uri":"textures\/Material.006_diffuse.png"},{"uri":"textures\/krzeslo_okno_diffuse.png"}],"materials":[{"doubleSided":true,"emissiveFactor":[0,0,0],"extensions":{"KHR_materials_pbrSpecularGlossiness":{"diffuseFactor":[1,1,1,1],"diffuseTexture":{"index":8,"texCoord":0},"glossinessFactor":0,"specularFactor":[0,0,0]}},"name":"Material","occlusionFactor":1},{"alphaCutoff":0.5,"alphaMode":"BLEND","doubleSided":true,"emissiveFactor":[1,1,1],"extensions":{"KHR_materials_pbrSpecularGlossiness":{"diffuseFactor":[1,1,1,0.040000000000000001],"diffuseTexture":{"index":4,"texCoord":0},"glossinessFactor":0,"specularFactor":[0,0,0]}},"name":"Material.001","occlusionFactor":1},{"doubleSided":true,"emissiveFactor":[0,0,0],"extensions":{"KHR_materials_pbrSpecularGlossiness":{"diffuseFactor":[1,1,1,1],"diffuseTexture":{"index":1,"texCoord":0},"glossinessFactor":0,"specularFactor":[0,0,0]}},"name":"Material.002","occlusionFactor":1},{"doubleSided":true,"emissiveFactor":[0,0,0],"extensions":{"KHR_materials_pbrSpecularGlossiness":{"diffuseFactor":[1,1,1,1],"diffuseTexture":{"index":12,"texCoord":0},"glossinessFactor":0,"specularFactor":[0,0,0]}},"name":"Material.003","normalTexture":{"index":13,"scale":0.28000000000000003,"texCoord":0},"occlusionFactor":1},{"doubleSided":true,"emissiveFactor":[0,0,0],"extensions":{"KHR_materials_pbrSpecularGlossiness":{"diffuseFactor":[1,1,1,1],"diffuseTexture":{"index":9,"texCoord":0},"glossinessFactor":0,"specularFactor":[0,0,0]}},"name":"Material.004","occlusionFactor":1},{"doubleSided":true,"emissiveFactor":[0,0,0],"extensions":{"KHR_materials_pbrSpecularGlossiness":{"diffuseFactor":[0.024031858999999999,0.016422071699999999,0.016422071699999999,1],"glossinessFactor":0,"specularFactor":[0,0,0]}},"name":"Material.005","occlusionFactor":1},{"doubleSided":true,"emissiveFactor":[0,0,0],"extensions":{"KHR_materials_pbrSpecularGlossiness":{"diffuseFactor":[1,1,1,1],"diffuseTexture":{"index":14,"texCoord":0},"glossinessFactor":0,"specularFactor":[0,0,0]}},"name":"Material.006","occlusionFactor":1},{"doubleSided":true,"emissiveFactor":[0,0,0],"extensions":{"KHR_materials_pbrSpecularGlossiness":{"diffuseFactor":[1,1,1,1],"diffuseTexture":{"index":0,"texCoord":0},"glossinessFactor":0,"specularFactor":[0,0,0]}},"name":"krzeslo_1","occlusionFactor":1},{"doubleSided":true,"emissiveFactor":[0,0,0],"extensions":{"KHR_materials_pbrSpecularGlossiness":{"diffuseFactor":[1,1,1,1],"diffuseTexture":{"index":15,"texCoord":0},"glossinessFactor":0,"specularFactor":[0,0,0]}},"name":"krzeslo_okno","occlusionFactor":1},{"doubleSided":true,"emissiveFactor":[0,0,0],"extensions":{"KHR_materials_pbrSpecularGlossiness":{"diffuseFactor":[1,1,1,1],"diffuseTexture":{"index":2,"texCoord":0},"glossinessFactor":0,"specularFactor":[0,0,0]}},"name":"krzeslo_prawe","occlusionFactor":1},{"doubleSided":true,"emissiveFactor":[0,0,0],"extensions":{"KHR_materials_pbrSpecularGlossiness":{"diffuseFactor":[1,1,1,1],"diffuseTexture":{"index":7,"texCoord":0},"glossinessFactor":0,"specularFactor":[0,0,0]}},"name":"krzeslo_srodek","occlusionFactor":1},{"doubleSided":true,"emissiveFactor":[0,0,0],"extensions":{"KHR_materials_pbrSpecularGlossiness":{"diffuseFactor":[1,1,1,1],"diffuseTexture":{"index":3,"texCoord":0},"glossinessFactor":0,"specularFactor":[0,0,0]}},"name":"mata","occlusionFactor":1},{"doubleSided":true,"emissiveFactor":[0,0,0],"extensions":{"KHR_materials_pbrSpecularGlossiness":{"diffuseFactor":[1,1,1,1],"diffuseTexture":{"index":5,"texCoord":0},"glossinessFactor":0,"specularFactor":[0,0,0]}},"name":"podloga","occlusionFactor":1},{"doubleSided":true,"emissiveFactor":[0,0,0],"extensions":{"KHR_materials_pbrSpecularGlossiness":{"diffuseFactor":[1,1,1,1],"diffuseTexture":{"index":10,"texCoord":0},"glossinessFactor":0,"specularFactor":[0,0,0]}},"name":"sciana_okno","occlusionFactor":1},{"doubleSided":true,"emissiveFactor":[0,0,0],"extensions":{"KHR_materials_pbrSpecularGlossiness":{"diffuseFactor":[1,1,1,1],"diffuseTexture":{"index":6,"texCoord":0},"glossinessFactor":0,"specularFactor":[0,0,0]}},"name":"stolik","occlusionFactor":1},{"doubleSided":true,"emissiveFactor":[0,0,0],"extensions":{"KHR_materials_pbrSpecularGlossiness":{"diffuseFactor":[1,1,1,1],"diffuseTexture":{"index":11,"texCoord":0},"glossinessFactor":0,"specularFactor":[0,0,0]}},"name":"stolik.001","occlusionFactor":1}],"meshes":[{"name":"lewa_sciana_Cube.002","primitives":[{"attributes":{"NORMAL":1,"POSITION":0,"TANGENT":3,"TEXCOORD_0":2},"indices":4,"material":0,"mode":4},{"attributes":{"NORMAL":6,"POSITION":5,"TANGENT":8,"TEXCOORD_0":7},"indices":9,"material":2,"mode":4},{"attributes":{"NORMAL":11,"POSITION":10,"TANGENT":13,"TEXCOORD_0":12},"indices":14,"material":3,"mode":4},{"attributes":{"NORMAL":16,"POSITION":15,"TANGENT":18,"TEXCOORD_0":17},"indices":19,"material":4,"mode":4},{"attributes":{"NORMAL":21,"POSITION":20,"TANGENT":23,"TEXCOORD_0":22},"indices":24,"material":7,"mode":4},{"attributes":{"NORMAL":26,"POSITION":25,"TANGENT":28,"TEXCOORD_0":27},"indices":29,"material":8,"mode":4},{"attributes":{"NORMAL":31,"POSITION":30,"TANGENT":33,"TEXCOORD_0":32},"indices":34,"material":9,"mode":4},{"attributes":{"NORMAL":36,"POSITION":35,"TANGENT":38,"TEXCOORD_0":37},"indices":39,"material":10,"mode":4},{"attributes":{"NORMAL":41,"POSITION":40,"TANGENT":43,"TEXCOORD_0":42},"indices":44,"material":12,"mode":4},{"attributes":{"NORMAL":46,"POSITION":45,"TANGENT":48,"TEXCOORD_0":47},"indices":49,"material":13,"mode":4},{"attributes":{"NORMAL":51,"POSITION":50,"TANGENT":53,"TEXCOORD_0":52},"indices":54,"material":15,"mode":4},{"attributes":{"NORMAL":56,"POSITION":55,"TANGENT":58,"TEXCOORD_0":57},"indices":59,"material":1,"mode":4},{"attributes":{"NORMAL":61,"POSITION":60},"indices":62,"material":2,"mode":4},{"attributes":{"NORMAL":64,"POSITION":63},"indices":65,"material":5,"mode":4},{"attributes":{"NORMAL":67,"POSITION":66,"TANGENT":69,"TEXCOORD_0":68},"indices":70,"material":6,"mode":4},{"attributes":{"NORMAL":72,"POSITION":71,"TANGENT":74,"TEXCOORD_0":73},"indices":75,"material":11,"mode":4},{"attributes":{"NORMAL":77,"POSITION":76,"TANGENT":79,"TEXCOORD_0":78},"indices":80,"material":14,"mode":4}]}],"nodes":[{"children":[1],"name":"RootNode (gltf orientation matrix)","rotation":[-0.70710678118654746,-0,-0,0.70710678118654757]},{"children":[2],"name":"RootNode (model correction matrix)"},{"children":[3],"name":"pokoj japonski.obj.cleaner"},{"mesh":0,"name":"lewa_sciana_Cube.002"}],"samplers":[{"magFilter":9729,"minFilter":9987,"wrapS":10497,"wrapT":10497}],"scene":0,"scenes":[{"name":"OSG_Scene","nodes":[0]}],"textures":[{"sampler":0,"source":0},{"sampler":0,"source":1},{"sampler":0,"source":2},{"sampler":0,"source":3},{"sampler":0,"source":4},{"sampler":0,"source":5},{"sampler":0,"source":6},{"sampler":0,"source":7},{"sampler":0,"source":8},{"sampler":0,"source":9},{"sampler":0,"source":10},{"sampler":0,"source":11},{"sampler":0,"source":12},{"sampler":0,"source":13},{"sampler":0,"source":14},{"sampler":0,"source":15}]}
