{
   "accessors":[
      {
         "bufferView":2,
         "componentType":5126,
         "count":766,
         "max":[
            438.5283203125,
            347.90460205078125,
            488.91787719726562
         ],
         "min":[
            0,
            0,
            0
         ],
         "type":"VEC3"
      },
      {
         "bufferView":2,
         "byteOffset":9192,
         "componentType":5126,
         "count":766,
         "max":[
            0.99994909763336182,
            0.99994909763336182,
            0.9998621940612793
         ],
         "min":[
            -0.99994909763336182,
            -0.99994909763336182,
            -0.99418437480926514
         ],
         "type":"VEC3"
      },
      {
         "bufferView":1,
         "componentType":5126,
         "count":766,
         "max":[
            1,
            0.99970000982284546
         ],
         "min":[
            -0.0010999999940395355,
            0
         ],
         "type":"VEC2"
      },
      {
         "bufferView":3,
         "componentType":5126,
         "count":766,
         "max":[
            1,
            0.99999129772186279,
            0.99957329034805298,
            1
         ],
         "min":[
            -1,
            -0.99999916553497314,
            -0.79963213205337524,
            -1
         ],
         "type":"VEC4"
      },
      {
         "bufferView":0,
         "componentType":5125,
         "count":2601,
         "max":[
            765
         ],
         "min":[
            0
         ],
         "type":"SCALAR"
      }
   ],
   "asset":{
      "generator":"Sketchfab (OSG glTF plugin)",
      "version":"2.0"
   },
   "bufferViews":[
      {
         "buffer":0,
         "byteLength":10404,
         "byteOffset":0,
         "name":"ScalarBufferView",
         "target":34962
      },
      {
         "buffer":0,
         "byteLength":6128,
         "byteOffset":10404,
         "byteStride":8,
         "name":"Vec2BufferView",
         "target":34962
      },
      {
         "buffer":0,
         "byteLength":18384,
         "byteOffset":16532,
         "byteStride":12,
         "name":"Vec3BufferView",
         "target":34962
      },
      {
         "buffer":0,
         "byteLength":12256,
         "byteOffset":34916,
         "byteStride":16,
         "name":"Vec4BufferView",
         "target":34962
      }
   ],
   "buffers":[
      {
         "byteLength":47172,
         "uri":"scene.bin"
      }
   ],
   "images":[
      {
         "uri":"textures\/COM_Nature_TreeA_BananaTree01_MIT01_baseColor.png"
      },
      {
         "uri":"textures\/COM_Nature_TreeA_BananaTree01_MIT01_normal.png"
      }
   ],
   "materials":[
      {
         "alphaCutoff":0.20000000000000001,
         "alphaMode":"MASK",
         "doubleSided":true,
         "emissiveFactor":[
            0,
            0,
            0
         ],
         "name":"COM_Nature_TreeA_BananaTree01_MIT01",
         "normalTexture":{
            "index":1,
            "scale":1,
            "texCoord":0
         },
         "pbrMetallicRoughness":{
            "baseColorFactor":[
               1,
               1,
               1,
               1
            ],
            "baseColorTexture":{
               "index":0,
               "texCoord":0
            },
            "metallicFactor":0,
            "roughnessFactor":0.59999999999999998
         }
      }
   ],
   "meshes":[
      {
         "name":"COM_Nature_TreeA_BananaTree01_SM01",
         "primitives":[
            {
               "attributes":{
                  "NORMAL":1,
                  "POSITION":0,
                  "TANGENT":3,
                  "TEXCOORD_0":2
               },
               "indices":4,
               "material":0,
               "mode":4
            }
         ]
      }
   ],
   "nodes":[
      {
         "children":[
            1
         ],
         "name":"RootNode (gltf orientation matrix)",
         "rotation":[
            -0.70710678118654746,
            -0,
            -0,
            0.70710678118654757
         ]
      },
      {
         "children":[
            2
         ],
         "name":"RootNode (model correction matrix)"
      },
      {
         "children":[
            3
         ],
         "matrix":[
            1,
            0,
            0,
            0,
            0,
            1,
            0,
            0,
            0,
            0,
            1,
            0,
            -198.13710021972656,
            -167.41912841796875,
            -0.64639997482299805,
            1
         ],
         "name":"3b11ca000bb04a8a9c47848ed401b44e.obj.cleaner.gles"
      },
      {
         "children":[
            4
         ],
         "name":""
      },
      {
         "mesh":0,
         "name":"COM_Nature_TreeA_BananaTree01_SM01"
      }
   ],
   "samplers":[
      {
         "magFilter":9729,
         "minFilter":9987,
         "wrapS":10497,
         "wrapT":10497
      }
   ],
   "scene":0,
   "scenes":[
      {
         "name":"OSG_Scene",
         "nodes":[
            0
         ]
      }
   ],
   "textures":[
      {
         "sampler":0,
         "source":0
      },
      {
         "sampler":0,
         "source":1
      }
   ]
}